<svg xmlns="http://www.w3.org/2000/svg" id="cutlery" viewBox="0 0 136 136"><style>.prefix__st4{fill:#202020}.prefix__st120{fill:#e2e2e2}.prefix__st123{fill:#bcbec0}.prefix__st294{fill:#b4b4b5}</style><path d="M74.4 79c-.3 1.5-.8 3.1-2.1 4.1-2.1 1.5-5.3 1-7.9.4-3.5-.8-7.5-2-9-4.8-.7-1.3-.7-2.7-.5-4.1.1-.6.2-1.1.3-1.7C59 50.3 62.9 27.6 68.3 5.2l.4-1c1.1 1.2 1.9 2.6 2.4 4.1.8 2.3 1.1 4.8 1.3 7.2 1.4 17.1 2.3 34.2 2.6 51.3.1 4 .1 8.1-.6 12.2z" class="prefix__st123"/><path d="M71.3 122c-.2 2.8-.5 5.8-2.2 7.8-1.5 1.8-3.9 2.2-6.1 1.6-1.5-.4-2.9-1.3-3.9-2.6-2.5-3.1-2.9-7.8-2.3-11.9.6-4.1 2.2-8 3.3-12 2.1-7.4 2.5-15.4 1.3-23.1l2.9 1 4 1.4c2.7 12.4 3.7 25.1 3 37.8zM120.5 26.8c-.2 4-1.3 7.9-3 11.5-1.1 2.4-2.5 4.7-4 6.8-1.8 2.5-3.9 4.9-5.4 7.6-3.6 6.3-4.2 15-4.3 22-.1 9.6-.3 19.2-.4 28.8-.1 5.7 1 11.4.6 17.1-.3 4.4-3.2 9.3-7.8 9.3-2.5 0-4.6-1.5-6.2-3.4-.8-1-1.5-2.2-2-3.3-3.4-7.8-2.3-16.7-.4-24.9 1.6-7.1 3.7-14.2 6.3-21 4-10.5 5-20-.2-30.3-1.8-3.7-4-7.1-5.9-10.6-1.8-3.5-3.3-7.1-3.7-11.3-.4-4.8.7-9.8 3.4-13.8 1.7-2.5 3.9-4.5 6.8-5.8 6.1-2.7 13.9-1.1 18.9 3.2.1.1.2.1.2.2 5.1 4.5 7.4 11.3 7.1 17.9zM36.8 64.2c.7 5.8 2.1 11.5 3.6 17.2 2.9 10.9 6.3 21.9 6 33.2-.1 3-.4 6.1-1.9 8.8-.6 1.1-1.4 2.2-2.4 3.1-1.4 1.3-3.3 2.3-5.3 2.6-5.1.9-10.2-2.3-12.4-6.4-2.2-4-2.1-8.6-1.9-13 .5-11.1 1.8-22.3 3.3-33.3.9-6.1 1.8-12.3 1-18.4 0-.2 0-.3-.1-.5-.3-1.8-.8-3.6-2.3-4.8-.7-.5-1.5-.9-2.3-1.3-.5-.2-1-.4-1.5-.7-5.7-3.3-4.6-11.1-4.7-16.1-.2-7.6-.3-15.1-.3-22.7 0-2.4 2.1-7.3 5.6-3.9l.1.1c1.2 1.2 1.3 2.9 1.4 4.4.3 5.8-.3 11.5 1.3 17 .3 1.1.7 2.2 1.6 3 .8.9 2.2 1.4 3.5 1.1 2.2-.5 2.7-2.8 2.8-4.7.3-5.1.6-10.2.9-15.2.1-1.5.2-2.9.7-4.3.2-.5.5-1.1 1-1.4 1-.7 2.5 0 3 1 1 2.1.3 5.3.3 7.5-.1 3.7-.3 7.3-.4 11-.1 1.5 0 3.3 1.5 4.1 1.2.6 2.8.3 3.9-.5 1-.8 1.6-1.9 1.9-3.1 1.7-6.3-2.5-13.5 1-19.2.1-.3.3-.6.6-.8 4.3-1.9 3.8 10.2 3.8 11.3.4 8-.2 16.1-1.8 24.1-.3 1.8-.8 3.6-2.3 4.9-1.7 1.5-4.3 1.9-6.4 2.9-4.9 2.5-3.2 9.1-2.8 13z" class="prefix__st123"/><path d="M22.2 51.5c-.5-.2-1-.4-1.5-.7-5.7-3.3-4.6-11.1-4.7-16.1-.2-7.6-.3-15.1-.3-22.7 0-2.4 2.1-7.3 5.6-3.9-3.3 13.4-3.1 27.2.9 40.5.3 1.1.3 2.1 0 2.9zM113.2 8.7c-5.6 1.1-11.2 3-15.6 6.7-6.1 5-7.9 12.7-9.5 20.1-.1.3-.2.7-.3 1-1.8-3.5-3.3-7.1-3.7-11.3-.4-4.8.7-9.8 3.4-13.8.9-1 1.9-2 2.9-2.9 1.2-1 2.5-2 3.8-2.9 6.2-2.9 14-1.3 19 3.1zM71.1 8.2c-2.4 7.9-4.3 16-5.6 24.3-1.9 12.9-2.7 25.9-5.7 38.6-.6 2.7-2.8 3.8-4.9 3.6.1-.6.2-1.1.3-1.7C59 50.3 62.9 27.6 68.3 5.2l.4-1c1.1 1.1 1.8 2.5 2.4 4zM42.2 126.5c-1.4 1.3-3.3 2.3-5.3 2.6-5.1.9-10.2-2.3-12.4-6.4-2.2-4-2.1-8.6-1.9-13 .5-11.1 1.8-22.3 3.3-33.3.9-6.1 1.8-12.3 1-18.4 1.9.5 3.6 2.1 3.9 4.5 1.3 11.4-1.5 22.5-2.5 33.8-.8 9.7-.4 24.1 10.8 27.6 1.5.6 2.5 1.5 3.1 2.6z" class="prefix__st120"/><path d="M117.4 38.3c-1.1 2.4-2.5 4.7-4 6.8-1.8 2.5-3.9 4.9-5.4 7.6-3.6 6.3-4.2 15-4.3 22-.1 9.6-.3 19.2-.4 28.8-.1 5.7 1 11.4.6 17.1-.3 4.4-3.2 9.3-7.8 9.3-2.5 0-4.6-1.5-6.2-3.4.3-.1.5-.2.8-.3 6.1-1.6 9.6-8.7 9.7-14.5.1-9.9-.5-19.5.5-29.4.5-4.9.4-9.7.9-14.6 1-10.1 3.4-20 7.7-29.2 1.7-3.6 5.9-2.8 7.9-.2zM71.3 122c-.2 2.8-.5 5.8-2.2 7.8-1.5 1.8-3.9 2.2-6.1 1.6.1-.5.4-1 .8-1.6 3.7-5.4 2.5-13.8 2.2-20-.3-7.7-1.1-15.4-2.5-23-.3-1.6.1-2.9.9-3.9l4 1.4c2.6 12.3 3.6 25 2.9 37.7z" class="prefix__st294"/><path d="M68.7 4.1c.2-.2.5-.3 1.4.5.5.4 1.1 1.1 1.7 2.2 3.7 6.8 7.9 70.4 2.9 76.8-4 5.2-17.7 1.1-20.6-3.5-.5-.9-.9-1.9-1-2.8-.8-5.6 13.7-72.5 15.2-72.1.5.1-12.3 67.8-11.6 71.5.7 4.5 13 6.7 14.8 4.4 3.2-3.9.3-68.2-2.7-75.6-.5-.9-.4-1.2-.1-1.4z" class="prefix__st4"/><path d="M68.3 84.2c.5-.1 1.1-.1 2.4 4.9.6 2.5 1.4 6.2 2 11.7.6 5.6 1.1 12.9.4 22.7-.4 3.8-1.4 7.6-4.9 9.3-6.9 3.3-15.2-3.4-13.3-15.8 1.4-8.6 5.7-13.2 6.2-27.9.2-4.5-.2-7.4.2-7.4.2 0 1.1 2.7 1.4 7.4 1 13.5-3.6 20.9-4.5 28.3-1.1 9.6 4.6 13.6 8.1 11.8 2-1 2.4-3.9 2.6-6.1.6-9.4.3-16.7-.1-22-.4-5.4-.9-9.1-1.1-11.5-.3-4.9 0-5.2.6-5.4zM103.3 103.6c.3 0 .5.1.8 2 .1.9.3 2.2.6 4.2.2 2 .6 4.5.7 8.1.1 2.4 0 4.2-.6 6.2-2.3 7.8-9.6 10-14.9 5.3-1.4-1.2-2.5-2.8-3.4-4.5-2.1-4.5-3.4-10.1-2.5-18.3.5-4.5 1.5-9.2 2.8-14.2 3.5-13.5 6-16.6 7.5-24 3-14.2-3.5-21.7-8.1-30.5-2.1-4-4-8.8-4.2-14-.3-11.7 7.5-21.9 19.3-21.5 11.4.4 19.9 9.5 20.6 21.3.3 5.3-1 10.4-3.1 14.9-1 2.2-2.3 4.3-3.7 6.3-3.9 5.7-7.2 7.7-9.2 16.8-1.9 8.5-1.2 15.7-2.2 36.5-.1 3.4-.3 5.4-.4 5.4s-.3-1.9-.3-5.4c-1.1-45.9 1.5-42 10-54.8 1.2-1.9 2.4-3.9 3.3-6 1.9-4.2 2.9-8.8 2.6-13.5-.8-10-7.9-17.8-17.6-18-9.6-.2-15.7 8.4-15.3 17.9.2 4.3 1.7 8.4 3.8 12.2 4.6 8.6 11.9 17.3 8.6 33.2-1.6 7.6-4.2 11.2-7.6 24.2-2.5 9.6-6.1 26 1.6 33.3 3.7 3.4 7.9 1.2 9.5-3.6.3-.9.5-1.8.6-2.6.1-.9.1-1.8.1-2.6.1-3.3-.1-5.9-.1-7.9s0-3.4.1-4.3c.1-2 .4-2.1.7-2.1z" class="prefix__st4"/><path d="M113.1 36.2c.5.2 1.1.4.7 2-.2.8-.7 2-2 3.3-1.2 1.3-3.4 2.8-6.6 3.3-1.7.2-4.1.1-6.3-.9s-4-2.7-5.3-4.4c-1.3-1.7-2-3.4-2.5-4.6-.4-1.3-.6-2.1-.3-2.2.3-.1.8.5 1.7 1.4.8 1 1.9 2.3 3.3 3.5 1.3 1.2 2.9 2.3 4.5 2.8s3.1.5 4.3.4c2.2-.3 3.6-1.2 4.6-2 1-.8 1.5-1.5 2-1.9.9-.9 1.4-.9 1.9-.7zM48.3 43.4c.1 0 .3.1.3.5s.1 1.1-.3 2.4c-.2.6-.5 1.5-1.2 2.3-3.1 3.9-8.9 2.1-9.5 8-.2 2 .2 4.4.7 7.3 2.3 16.6 10.2 33 10 50.6-.2 10.4-5 15.4-10.9 16.5-6.9 1.4-15.7-3.3-16.8-14.5-1.4-14.3 5.4-47.2 4.4-57.1-.1-1.4-.3-2.8-.8-3.8s-1-1.4-2.3-2c-3.5-1.6-5.9-3.2-7.2-7.9-.9-3.5-.7-6.9-.7-10.1 0-3.2-.1-6.5-.1-9.8 0-3.3 0-6.6-.1-10v-4.6c0-.3.1-.5.1-.8.2-1 .6-2 1.1-2.9.3-.5.7-.9 1.1-1.4.5-.1.9-.3 1.2-.5.3-.2.7-.3 1.1-.4.4-.1.8-.1 1.2 0 .2 0 .4.1.6.1.2.1.3.1.5.2l.3.2.4.2c.2.2.5.3.7.5l.6.6c.2.2.4.4.6.7.4.5.6 1 .8 1.6.4 1.1.5 2.1.5 3v2.6c0 3.4-.2 6.7.2 9.9.2 1.6.5 3.2.9 4.6.4 1.4 1.1 2.3 2.1 2.6.5.2.9.1 1.3 0 .3-.2.6-.4.8-1 .2-.5.4-1.2.4-2l.2-2.5c.2-3.3.4-6.6.7-9.8.1-1.6.2-3.2.4-4.9.1-.9.2-1.8.5-2.7.1-.2.1-.4.3-.7.1-.3.3-.6.5-.9.4-.5 1-.9 1.6-1.1.6-.2 1.3-.2 2 0 .6.2 1.1.5 1.6.9.2.2.4.5.6.7.2.3.3.6.4.8.2.5.3 1 .4 1.4.3 1.9 0 3.5-.1 5-.1 1.4-.1 3-.2 4.5s-.1 3.1-.2 4.6c0 .8-.1 1.5-.1 2.3 0 .8-.1 1.5 0 2.1.1 1.3.5 1.8 1.5 2 .5.1 1 0 1.5-.2s.8-.5 1.2-1c.7-.8 1-2.1 1.1-3.4.3-2.5-.1-5.2-.4-7.8-.3-2.6-.5-5.4.5-8 .1-.3.2-.6.4-1l.6-1c-.3-.3 0-.7.3-.9.4-.3.8-.4 1.2-.4.8-.2 1.7.2 2.2.8.6.6.9 1.4 1.1 2 .7 2.4.8 4.6.8 6.8v5.9c0 1.9-.1 3.7-.2 5.4-.2 3.3-.5 6.2-.9 8.5s-.7 4.1-1 5.3c-.2 1.1-.4 1.8-.5 1.7-.2 0 .3-2.6.8-7.2.2-2.3.4-5.2.5-8.5v-5.3c0-.9-.1-1.9-.1-2.9s-.1-2-.1-3.1c-.1-2-.2-4.2-.9-6.2-.2-.5-.3-.8-.5-1-.3-.2-.7-.3-1-.2-.2 0-.3.1-.4.2-.1.1-.2.2-.3.4l-.3.6c-.1.2-.2.5-.3.8-.7 2-.5 4.5-.2 7 .3 2.6.9 5.3.6 8.3-.2 1.5-.4 3-1.5 4.5-.5.7-1.2 1.4-2.1 1.8-.8.4-1.8.6-2.7.5-1-.1-2-.6-2.7-1.5-.7-.9-.9-1.9-1-2.7-.1-.9 0-1.7 0-2.4s0-1.5.1-2.2c0-1.5.1-3 .1-4.5.1-1.5 0-3 .2-4.7.1-1.6.3-3.1.1-4.3 0-.3-.1-.6-.2-.8-.1-.3-.1-.3-.3-.4-.1-.1-.3-.2-.5-.3h-.3c-.1 0-.2.1-.3.2 0 .1 0 .1-.1.2 0 .1-.1.3-.1.4-.2.6-.3 1.3-.4 2.1-.1 1.5-.2 3.2-.3 4.8-.2 3.3-.3 6.5-.5 9.8l-.1 2.5c-.1.9-.2 1.9-.6 2.9-.4 1-1.2 2.1-2.4 2.7-1.1.6-2.5.6-3.6.3s-2.1-1-2.9-1.9c-.7-.9-1.1-1.9-1.4-2.8-.6-1.7-.9-3.5-1.1-5.3-.4-3.5-.3-7-.3-10.3 0-.8 0-1.7-.1-2.5 0-.8-.1-1.5-.3-2-.1-.3-.2-.5-.3-.7-.1-.1-.1-.2-.2-.3l-.3-.3c-.3-.1-.4-.1-.5-.2l-.1-.1h-.1s-.1 0-.1-.1H19s-.4.2-.7.7c-.3.5-.5 1.1-.7 1.8 0 .2 0 .3-.1.5v4.2c.1 3.3.1 6.6.2 9.9.1 3.3.1 6.6.2 9.8 0 3.3-.1 6.4.6 9.1 1 3.6 3 4.3 5.1 5.3 2.7 1.2 4.3 2.8 5.1 6.6.2.8.2 1.6.3 2.4 1 9.7-5.6 44.8-4.4 57.1.8 8.3 6.9 12 12.1 11 5.9-1.1 7.7-6.7 7.8-12.7.3-16.8-7.5-33.3-9.2-50.1-.3-2.7-.8-5.5-.4-8.1.8-5.8 5.1-6.4 8.4-7.6 1.2-.4 2-.9 2.5-1.4.6-.5.9-1.1 1.2-1.6.5-1 .7-1.7 1-2 0-.2.2-.2.3-.2z" class="prefix__st4"/></svg>
