<svg xmlns="http://www.w3.org/2000/svg" viewBox="0 0 135 135"><path d="M74.11 83.107c5.045-6.404.859-69.994-2.866-76.806-.633-1.143-1.234-1.824-1.692-2.227-.928-.797-1.201-.631-1.398-.452-.218.197-.315.433.126 1.397 3.06 7.363 5.882 71.695 2.713 75.597-1.8 2.312-14.143.137-14.837-4.39C55.538 72.46 68.34 4.783 67.808 4.656 66.319 4.295 51.82 71.2 52.523 76.748c.128.954.458 1.973 1.006 2.827 1.153 1.858 4.014 3.615 7.293 4.732a91.298 91.298 0 0 1-.033 4.37c-.493 14.623-4.87 19.23-6.243 27.854-1.944 12.422 6.337 19.11 13.28 15.783 3.442-1.619 4.529-5.476 4.885-9.263.654-9.853.157-17.197-.447-22.75-.636-5.538-1.401-9.231-2.026-11.696-.376-1.437-.694-2.451-.97-3.176 2.032-.24 3.772-.957 4.841-2.322zm-5.456 39.586c-.195 2.196-.656 5.043-2.618 6.056-3.592 1.872-9.28-2.163-8.144-11.757.859-7.43 5.476-14.82 4.482-28.344-.114-1.559-.286-2.9-.472-4 1.731.5 3.535.813 5.238.865.002.785.079 1.92.263 3.599.253 2.478.708 6.126 1.125 11.537.388 5.388.748 12.646.126 22.044zM105.526 61.137c1.997-9.018 5.304-11.113 9.232-16.763 1.361-1.968 2.615-4.067 3.661-6.315 2.094-4.474 3.423-9.595 3.083-14.886-.751-11.86-9.25-20.936-20.611-21.325-11.77-.412-19.581 9.82-19.294 21.533.161 5.182 2.017 9.948 4.167 13.964 4.634 8.789 11.09 16.296 8.122 30.534-1.525 7.4-4 10.52-7.503 24.01-1.271 4.968-2.307 9.654-2.778 14.185-.856 8.113.365 13.735 2.51 18.258.866 1.724 1.986 3.253 3.372 4.5 5.278 4.703 12.541 2.424 14.855-5.329.588-1.972.658-3.825.581-6.201-.123-3.532-.502-6.116-.733-8.079-.25-1.958-.425-3.284-.572-4.195-.28-1.82-.52-1.965-.81-1.968-.272-.003-.569.126-.775 2.011-.095.94-.15 2.321-.114 4.314.017 1.989.19 4.598.124 7.926a40.95 40.95 0 0 1-.142 2.624c-.08.861-.251 1.722-.556 2.621-1.61 4.77-5.772 7.012-9.46 3.616-7.72-7.228-4.148-23.708-1.643-33.269 3.453-13.007 6.044-16.571 7.627-24.202 3.339-15.927-4.008-24.641-8.577-33.218-2.058-3.792-3.63-7.886-3.808-12.233-.336-9.489 5.688-18.04 15.313-17.822 9.716.203 16.777 7.997 17.57 17.971.38 4.621-.707 9.289-2.568 13.465-.927 2.099-2.06 4.086-3.303 5.967-8.482 12.783-11.166 8.89-10.027 54.79.087 3.5.199 5.437.34 5.439s.302-1.932.48-5.429c1.062-20.833.368-27.964 2.237-36.494z"/><path d="M104.81 44.289c3.201-.44 5.352-1.982 6.583-3.28 1.252-1.339 1.744-2.506 1.961-3.298.37-1.627-.204-1.831-.709-2.006-.549-.193-1.003-.225-1.846.678-.442.434-1.003 1.105-1.978 1.894-.982.765-2.38 1.668-4.557 1.976-1.183.157-2.744.168-4.32-.374-1.589-.504-3.165-1.57-4.5-2.79-1.332-1.227-2.433-2.558-3.273-3.515-.838-.96-1.43-1.546-1.683-1.414-.245.128-.131.96.313 2.213a18.427 18.427 0 0 0 2.493 4.63c1.252 1.685 3.067 3.393 5.258 4.36 2.173 1.013 4.535 1.167 6.258.926zM48.376 41.13c.29-1.202.659-2.989 1.021-5.31.36-2.322.7-5.184.891-8.522a92.932 92.932 0 0 0 .109-8.283c-.01-.92.034-2 .014-3.048-.055-2.125-.1-4.354-.822-6.75-.166-.532-.525-1.389-1.1-1.972-.558-.588-1.385-.931-2.208-.78-.401.065-.816.185-1.16.419-.324.23-.64.595-.793.935l-.56 1.028c-.168.337-.25.635-.378.958-.91 2.583-.732 5.362-.454 7.982.28 2.625.722 5.265.401 7.79-.163 1.245-.461 2.533-1.116 3.379-.325.432-.709.76-1.165.955-.463.206-1.007.294-1.464.233-.91-.13-1.35-.714-1.452-1.973-.051-.596.004-1.301.034-2.066l.099-2.25.2-4.56c.08-1.517.102-3.13.23-4.532.13-1.516.4-3.146.138-5.019a6.817 6.817 0 0 0-.37-1.44c-.102-.238-.194-.485-.388-.79a3.774 3.774 0 0 0-.636-.734 4.165 4.165 0 0 0-1.594-.886c-.65-.188-1.35-.21-1.998-.023a3.178 3.178 0 0 0-1.635 1.135 4.25 4.25 0 0 0-.504.867c-.114.256-.188.483-.262.703-.29.894-.44 1.793-.536 2.652-.167 1.721-.234 3.271-.354 4.916l-.651 9.834-.165 2.456c-.057.726-.188 1.417-.41 1.953-.223.555-.508.845-.824 1.002-.356.166-.764.2-1.254.047-1.005-.311-1.622-1.13-2.063-2.562a24.275 24.275 0 0 1-.893-4.616c-.334-3.186-.19-6.51-.178-9.926 0-.863-.002-1.701-.03-2.601-.039-.912-.121-1.928-.49-3a6.113 6.113 0 0 0-.803-1.567 5.932 5.932 0 0 0-.584-.693l-.6-.545c-.18-.183-.454-.348-.702-.511l-.383-.24-.471-.199a8.56 8.56 0 0 0-.481-.177 8.685 8.685 0 0 0-.566-.093c-.375-.073-.774-.026-1.166.032-.387.057-.75.226-1.098.376-.29.186-.63.378-.853.599a5.81 5.81 0 0 0-1.145 1.38c-.578.95-.92 1.905-1.139 2.923-.06.25-.086.525-.127.787-.022.26-.045.61-.043.81l.01 1.259.017 2.512.075 9.982.078 9.789c.003 3.146-.233 6.561.69 10.07 1.246 4.665 3.68 6.21 7.167 7.85 1.341.612 1.817 1.032 2.292 2.05.445.961.621 2.37.77 3.774.971 9.9-5.859 42.804-4.438 57.138 1.145 11.265 9.997 15.898 16.85 14.536 5.939-1.184 10.786-6.097 10.945-16.538.2-17.547-7.757-33.927-10.015-50.57-.453-2.942-.911-5.32-.699-7.328.554-5.915 6.383-4.132 9.465-8.007a6.587 6.587 0 0 0 1.208-2.339c.355-1.305.32-1.995.28-2.375-.057-.38-.183-.45-.32-.478-.139-.029-.282-.01-.484.307-.211.307-.441.95-.952 1.967-.262.5-.612 1.082-1.17 1.614-.55.53-1.359.992-2.53 1.403-3.245 1.167-7.555 1.732-8.355 7.561-.368 2.575.11 5.317.437 8.054 1.79 16.816 9.556 33.28 9.246 50.125-.109 6.034-1.932 11.589-7.82 12.688-5.112 1.004-11.223-2.754-12.054-11.017-1.207-12.307 5.352-47.422 4.376-57.144-.083-.793-.18-1.55-.332-2.388-.741-3.825-2.361-5.374-5.058-6.619-2.092-.95-4.064-1.689-5.058-5.294-.734-2.649-.614-5.747-.616-9.055l-.151-9.83-.156-9.93-.04-2.499-.02-1.252c-.002-.218.013-.287.017-.443.028-.152.033-.297.071-.454.123-.62.36-1.266.654-1.752.289-.492.65-.765.698-.724.025.011.044-.03.086.002a.103.103 0 0 0 .058-.006c.033.018.07.039.106.052a.672.672 0 0 0 .116.035l.147.102c.1.072.204.105.317.227l.34.3c.092.09.16.173.234.268.14.187.254.408.348.671.19.524.28 1.206.316 1.974.032.785.045 1.634.052 2.457.026 3.325-.098 6.768.304 10.287.195 1.761.536 3.513 1.087 5.261.29.893.705 1.884 1.426 2.766a5.808 5.808 0 0 0 2.862 1.91c1.105.348 2.483.308 3.628-.275 1.192-.587 1.992-1.71 2.36-2.703.396-1.013.535-1.985.603-2.91l.137-2.509.523-9.842c.095-1.605.152-3.298.277-4.79.072-.743.185-1.44.382-2.076.051-.161.1-.316.15-.427a.91.91 0 0 1 .087-.171.525.525 0 0 1 .273-.206.634.634 0 0 1 .346 0c.127.038.355.143.473.257.149.142.148.127.279.43.096.252.18.53.226.844.211 1.258.035 2.771-.092 4.34-.12 1.696-.107 3.171-.166 4.71l-.125 4.538-.06 2.24c-.013.724-.071 1.504.012 2.381.085.852.3 1.84.973 2.706.66.866 1.719 1.374 2.7 1.465a5.225 5.225 0 0 0 2.744-.472c.856-.389 1.573-1.039 2.076-1.75 1.034-1.47 1.291-3.04 1.472-4.508.304-2.998-.25-5.738-.568-8.3-.33-2.546-.502-5 .199-7.112.092-.25.177-.547.269-.758l.284-.578c.1-.214.162-.308.29-.433.123-.106.284-.158.44-.193.321-.076.656.061.864.308.216.246.34.48.54 1.022.661 1.971.808 4.182.908 6.22l.079 3.074a100.946 100.946 0 0 1 .173 8.168 107.348 107.348 0 0 1-.495 8.465c-.463 4.639-.923 7.19-.764 7.22.067.014.266-.606.557-1.807z"/></svg>
