<svg xmlns="http://www.w3.org/2000/svg" id="canvas" viewBox="262.977 388.951 1000.223 133.268"><path d="M 298.28,394.06 C 297.20 394.77, 296.77 395.84, 296.08 397.88 C 295.39 399.92, 295.07 401.24, 294.83 404.27 C 294.59 407.31, 294.93 409.32, 294.87 413.05 C 294.82 416.78, 294.72 418.75, 294.55 422.93 C 294.38 427.10, 294.25 429.38, 294.02 433.92 C 293.78 438.47, 293.59 440.89, 293.38 445.67 C 293.18 450.44, 293.09 452.95, 292.97 457.82 C 292.85 462.68, 292.77 465.20, 292.78 469.97 C 292.79 474.74, 292.91 477.22, 293.01 481.69 C 293.12 486.16, 293.20 488.31, 293.31 492.30 C 293.42 496.29, 293.52 498.18, 293.57 501.64 C 293.61 505.09, 293.33 506.83, 293.53 509.57 C 293.73 512.32, 294.04 513.54, 294.58 515.38 C 295.12 517.21, 295.46 518.08, 296.24 518.74 C 297.03 519.40, 297.77 519.38, 298.51 518.67 C 299.26 517.97, 299.53 517.12, 299.97 515.23 C 300.41 513.33, 300.80 511.98, 300.70 509.18 C 300.60 506.38, 299.91 504.66, 299.47 501.22 C 299.04 497.79, 298.84 495.95, 298.51 492.01 C 298.19 488.07, 298.06 485.93, 297.84 481.51 C 297.62 477.10, 297.46 474.65, 297.41 469.94 C 297.35 465.23, 297.43 462.74, 297.57 457.94 C 297.71 453.14, 297.82 450.65, 298.12 445.92 C 298.41 441.19, 298.63 438.79, 299.04 434.28 C 299.45 429.77, 299.66 427.52, 300.16 423.38 C 300.67 419.25, 301.01 417.28, 301.57 413.60 C 302.12 409.91, 302.64 407.99, 302.93 404.97 C 303.21 401.96, 303.27 400.66, 302.98 398.53 C 302.69 396.41, 302.40 395.23, 301.46 394.33 C 300.52 393.44, 299.35 393.35, 298.28 394.06" style="stroke: white; fill: white;"/><path d="M 266.98,411.94 C 267.92 412.70, 268.87 412.74, 270.87 412.75 C 272.86 412.76, 274.02 412.68, 276.94 411.97 C 279.87 411.27, 281.70 410.25, 285.50 409.21 C 289.30 408.17, 291.45 407.72, 295.93 406.77 C 300.40 405.83, 302.95 405.34, 307.88 404.49 C 312.81 403.63, 315.47 403.23, 320.59 402.50 C 325.71 401.78, 328.46 401.49, 333.49 400.86 C 338.52 400.23, 341.10 399.89, 345.76 399.37 C 350.42 398.85, 352.77 398.66, 356.80 398.27 C 360.83 397.88, 362.72 397.97, 365.93 397.41 C 369.14 396.86, 371.51 396.48, 372.84 395.51 C 374.16 394.53, 374.04 393.24, 372.54 392.54 C 371.05 391.85, 368.63 391.90, 365.36 392.03 C 362.09 392.17, 360.24 392.66, 356.21 393.21 C 352.17 393.77, 349.84 394.15, 345.18 394.82 C 340.53 395.48, 337.97 395.86, 332.93 396.53 C 327.90 397.20, 325.15 397.48, 320.00 398.15 C 314.84 398.83, 312.16 399.22, 307.17 399.90 C 302.18 400.59, 299.62 400.99, 295.04 401.59 C 290.46 402.18, 288.24 402.40, 284.25 402.90 C 280.26 403.40, 278.11 403.41, 275.11 404.08 C 272.10 404.75, 271.00 405.30, 269.21 406.27 C 267.42 407.24, 266.62 407.81, 266.18 408.95 C 265.73 410.08, 266.04 411.18, 266.98 411.94" style="stroke: white; fill: white;"/><path d="M 281.17,451.72 C 281.96 452.71, 282.97 453.35, 285.20 453.68 C 287.42 454.01, 288.98 453.87, 292.31 453.37 C 295.64 452.86, 297.79 452.16, 301.85 451.18 C 305.90 450.19, 308.14 449.52, 312.59 448.43 C 317.03 447.34, 319.76 446.76, 324.07 445.71 C 328.38 444.65, 330.82 444.26, 334.13 443.14 C 337.44 442.02, 339.46 441.24, 340.62 440.09 C 341.78 438.95, 341.48 437.83, 339.91 437.40 C 338.34 436.97, 336.22 437.34, 332.79 437.95 C 329.37 438.56, 327.07 439.41, 322.79 440.45 C 318.51 441.48, 315.81 442.22, 311.39 443.13 C 306.97 444.05, 304.72 444.50, 300.70 445.02 C 296.68 445.54, 294.47 445.37, 291.29 445.75 C 288.11 446.12, 286.79 446.31, 284.78 446.90 C 282.77 447.49, 281.96 447.73, 281.23 448.69 C 280.51 449.66, 280.38 450.72, 281.17 451.72" style="stroke: white; fill: white;"/><path d="M 381.17,408.49 C 380.27 409.10, 380.13 409.66, 379.68 411.11 C 379.24 412.57, 378.94 413.50, 378.94 415.75 C 378.95 418.00, 379.24 419.47, 379.72 422.38 C 380.20 425.29, 380.76 426.87, 381.35 430.29 C 381.94 433.71, 382.16 435.64, 382.67 439.50 C 383.18 443.35, 383.38 445.44, 383.90 449.56 C 384.43 453.68, 384.69 455.88, 385.28 460.10 C 385.88 464.32, 386.16 466.51, 386.89 470.66 C 387.63 474.81, 388.05 476.94, 388.96 480.86 C 389.87 484.78, 390.33 486.74, 391.45 490.25 C 392.57 493.76, 393.15 495.40, 394.55 498.41 C 395.95 501.42, 396.70 502.95, 398.44 505.28 C 400.19 507.62, 401.37 508.71, 403.29 510.07 C 405.21 511.44, 406.45 511.78, 408.04 512.10 C 409.63 512.41, 410.47 512.16, 411.25 511.65 C 412.04 511.15, 412.14 510.40, 411.98 509.56 C 411.83 508.73, 411.33 508.45, 410.49 507.48 C 409.65 506.50, 409.07 506.01, 407.79 504.69 C 406.52 503.38, 405.59 502.75, 404.10 500.91 C 402.61 499.06, 401.77 497.97, 400.35 495.45 C 398.93 492.93, 398.21 491.50, 396.99 488.32 C 395.78 485.14, 395.26 483.27, 394.28 479.55 C 393.30 475.83, 392.84 473.75, 392.09 469.72 C 391.34 465.69, 391.07 463.54, 390.53 459.39 C 390.00 455.24, 389.78 453.05, 389.41 448.96 C 389.03 444.87, 388.89 442.79, 388.67 438.92 C 388.44 435.06, 388.34 433.11, 388.28 429.63 C 388.21 426.15, 388.44 424.45, 388.33 421.51 C 388.22 418.58, 388.14 417.16, 387.74 414.96 C 387.35 412.75, 387.07 411.86, 386.36 410.48 C 385.65 409.10, 385.21 408.47, 384.17 408.07 C 383.14 407.67, 382.07 407.88, 381.17 408.49" style="stroke: white; fill: white;"/><path d="M 465.78,458.36 C 466.17 457.19, 465.97 456.10, 465.14 454.66 C 464.31 453.22, 463.49 452.33, 461.65 451.16 C 459.81 449.99, 458.43 449.33, 455.92 448.82 C 453.42 448.31, 451.95 448.36, 449.13 448.59 C 446.31 448.81, 444.76 449.01, 441.82 449.95 C 438.88 450.89, 437.32 451.65, 434.43 453.27 C 431.53 454.89, 430.02 455.90, 427.34 458.05 C 424.66 460.19, 423.29 461.41, 421.03 464.01 C 418.77 466.61, 417.66 468.09, 416.05 471.05 C 414.44 474.02, 413.67 475.67, 413.00 478.83 C 412.32 481.99, 412.25 483.72, 412.68 486.85 C 413.12 489.98, 413.56 491.68, 415.18 494.49 C 416.79 497.29, 418.03 498.68, 420.74 500.87 C 423.44 503.06, 425.19 504.00, 428.70 505.43 C 432.21 506.86, 434.28 507.36, 438.29 508.03 C 442.31 508.70, 444.53 508.81, 448.78 508.79 C 453.03 508.76, 455.31 508.59, 459.55 507.92 C 463.80 507.24, 466.07 506.66, 470.01 505.42 C 473.96 504.17, 475.89 503.41, 479.27 501.69 C 482.65 499.96, 484.22 498.99, 486.92 496.79 C 489.62 494.58, 491.01 493.33, 492.76 490.66 C 494.50 487.99, 495.07 486.39, 495.63 483.43 C 496.20 480.46, 496.15 478.77, 495.58 475.84 C 495.01 472.91, 494.39 471.40, 492.78 468.79 C 491.16 466.18, 489.91 464.91, 487.49 462.80 C 485.08 460.70, 483.53 459.80, 480.70 458.28 C 477.88 456.75, 476.27 456.09, 473.39 455.19 C 470.51 454.30, 468.85 453.97, 466.31 453.80 C 463.77 453.63, 462.46 453.89, 460.68 454.36 C 458.90 454.82, 458.05 455.28, 457.41 456.12 C 456.77 456.95, 456.86 457.75, 457.48 458.55 C 458.10 459.35, 458.96 459.56, 460.50 460.12 C 462.04 460.68, 463.07 460.84, 465.17 461.37 C 467.27 461.90, 468.62 462.01, 470.99 462.77 C 473.35 463.54, 474.72 463.97, 476.99 465.18 C 479.27 466.40, 480.46 467.30, 482.37 468.86 C 484.28 470.42, 485.27 471.27, 486.54 472.97 C 487.81 474.67, 488.24 475.51, 488.71 477.35 C 489.19 479.18, 489.27 480.24, 488.91 482.15 C 488.55 484.06, 488.14 484.94, 486.91 486.90 C 485.67 488.86, 484.83 490.04, 482.75 491.97 C 480.67 493.89, 479.40 494.90, 476.51 496.54 C 473.62 498.18, 471.86 498.95, 468.30 500.15 C 464.74 501.35, 462.60 501.93, 458.71 502.54 C 454.81 503.15, 452.68 503.27, 448.82 503.20 C 444.96 503.12, 442.90 502.91, 439.40 502.16 C 435.90 501.42, 434.14 500.81, 431.31 499.47 C 428.48 498.12, 427.24 497.16, 425.26 495.44 C 423.28 493.73, 422.53 492.78, 421.41 490.87 C 420.30 488.97, 419.93 488.03, 419.68 485.93 C 419.43 483.84, 419.64 482.72, 420.17 480.41 C 420.70 478.10, 421.10 476.75, 422.32 474.39 C 423.55 472.03, 424.42 470.75, 426.30 468.61 C 428.18 466.47, 429.39 465.41, 431.71 463.69 C 434.03 461.98, 435.42 461.18, 437.91 460.01 C 440.41 458.85, 441.80 458.53, 444.19 457.87 C 446.57 457.22, 447.84 456.93, 449.84 456.74 C 451.85 456.54, 452.69 456.56, 454.21 456.90 C 455.72 457.24, 456.22 457.84, 457.42 458.44 C 458.63 459.04, 459.07 459.49, 460.22 459.90 C 461.38 460.32, 462.09 460.83, 463.20 460.52 C 464.31 460.21, 465.39 459.53, 465.78 458.36" style="stroke: white; fill: white;"/><path d="M 548.24,457.95 C 548.34 456.69, 547.81 455.58, 546.62 454.32 C 545.42 453.07, 544.35 452.45, 542.25 451.68 C 540.15 450.90, 538.73 450.56, 536.10 450.44 C 533.48 450.32, 532.02 450.47, 529.13 451.06 C 526.23 451.66, 524.63 452.17, 521.63 453.41 C 518.62 454.66, 517.05 455.49, 514.10 457.27 C 511.14 459.05, 509.56 460.10, 506.86 462.32 C 504.16 464.55, 502.79 465.80, 500.60 468.40 C 498.41 470.99, 497.26 472.38, 495.91 475.30 C 494.56 478.21, 494.10 479.88, 493.84 482.99 C 493.58 486.09, 493.66 487.81, 494.60 490.82 C 495.55 493.82, 496.34 495.50, 498.57 498.01 C 500.81 500.53, 502.45 501.61, 505.77 503.40 C 509.09 505.19, 511.02 505.88, 515.18 506.96 C 519.35 508.05, 521.75 508.41, 526.58 508.81 C 531.41 509.21, 534.10 509.18, 539.32 508.95 C 544.54 508.72, 547.38 508.44, 552.67 507.68 C 557.97 506.93, 561.09 506.25, 565.80 505.16 C 570.51 504.08, 572.81 503.45, 576.21 502.25 C 579.61 501.05, 580.84 500.43, 582.79 499.15 C 584.74 497.87, 585.55 496.90, 585.97 495.85 C 586.39 494.80, 585.94 494.14, 584.89 493.90 C 583.84 493.67, 582.81 494.06, 580.70 494.68 C 578.59 495.29, 577.54 495.81, 574.32 496.99 C 571.10 498.16, 569.08 499.28, 564.62 500.53 C 560.16 501.79, 557.11 502.50, 552.02 503.27 C 546.93 504.05, 544.15 504.29, 539.17 504.40 C 534.18 504.51, 531.57 504.42, 527.10 503.84 C 522.62 503.27, 520.39 502.73, 516.78 501.53 C 513.18 500.32, 511.60 499.46, 509.05 497.81 C 506.50 496.16, 505.58 495.10, 504.03 493.27 C 502.49 491.43, 501.95 490.57, 501.31 488.65 C 500.67 486.73, 500.58 485.72, 500.82 483.67 C 501.06 481.61, 501.47 480.55, 502.50 478.40 C 503.54 476.24, 504.25 475.02, 505.99 472.88 C 507.74 470.74, 508.90 469.58, 511.24 467.71 C 513.57 465.83, 515.04 464.93, 517.66 463.53 C 520.29 462.13, 521.76 461.57, 524.37 460.71 C 526.97 459.84, 528.41 459.59, 530.68 459.20 C 532.95 458.81, 533.89 458.66, 535.70 458.75 C 537.52 458.84, 538.28 459.30, 539.74 459.64 C 541.20 459.99, 541.74 460.28, 543.01 460.48 C 544.29 460.67, 545.08 461.12, 546.12 460.62 C 547.17 460.11, 548.15 459.21, 548.24 457.95" style="stroke: white; fill: white;"/><path d="M 584.04,416.10 C 583.06 416.96, 582.73 418.27, 582.51 420.20 C 582.29 422.13, 582.50 423.31, 582.95 425.77 C 583.41 428.23, 583.88 429.77, 584.79 432.51 C 585.70 435.25, 586.46 436.53, 587.52 439.48 C 588.58 442.42, 589.09 443.99, 590.07 447.24 C 591.05 450.49, 591.53 452.25, 592.41 455.73 C 593.29 459.20, 593.71 461.07, 594.49 464.62 C 595.27 468.16, 595.65 469.96, 596.31 473.44 C 596.97 476.92, 597.29 478.73, 597.78 482.03 C 598.27 485.33, 598.40 486.98, 598.74 489.94 C 599.08 492.91, 599.09 494.38, 599.48 496.85 C 599.86 499.32, 600.09 500.63, 600.67 502.29 C 601.25 503.96, 601.77 504.37, 602.37 505.18 C 602.97 505.99, 603.10 506.14, 603.67 506.36 C 604.25 506.59, 604.69 506.63, 605.24 506.31 C 605.80 505.98, 606.05 505.74, 606.45 504.74 C 606.86 503.74, 607.20 503.10, 607.27 501.31 C 607.34 499.53, 607.11 498.29, 606.78 495.81 C 606.46 493.33, 606.21 491.89, 605.67 488.91 C 605.13 485.94, 604.75 484.26, 604.08 480.93 C 603.40 477.59, 603.03 475.77, 602.31 472.26 C 601.58 468.74, 601.20 466.93, 600.44 463.33 C 599.68 459.74, 599.31 457.83, 598.52 454.27 C 597.72 450.71, 597.26 448.89, 596.47 445.53 C 595.68 442.16, 595.26 440.51, 594.57 437.44 C 593.88 434.36, 593.68 432.92, 593.03 430.17 C 592.38 427.41, 592.05 425.88, 591.33 423.66 C 590.61 421.44, 590.21 420.63, 589.43 419.07 C 588.64 417.52, 588.48 416.47, 587.40 415.87 C 586.32 415.28, 585.02 415.23, 584.04 416.10" style="stroke: white; fill: white;"/><path d="M 621.30,457.54 C 620.82 456.60, 620.32 456.24, 619.20 455.96 C 618.07 455.67, 617.24 455.64, 615.67 456.11 C 614.10 456.57, 613.05 457.06, 611.36 458.28 C 609.68 459.51, 608.83 460.46, 607.25 462.22 C 605.66 463.99, 604.86 465.02, 603.46 467.12 C 602.05 469.21, 601.28 470.35, 600.22 472.70 C 599.16 475.05, 598.64 476.37, 598.17 478.87 C 597.71 481.37, 597.57 482.69, 597.89 485.22 C 598.21 487.75, 598.51 489.10, 599.77 491.50 C 601.04 493.89, 601.95 495.22, 604.22 497.19 C 606.49 499.15, 608.00 499.98, 611.12 501.30 C 614.25 502.62, 616.10 503.05, 619.85 503.78 C 623.60 504.51, 625.71 504.73, 629.87 504.94 C 634.03 505.15, 636.30 505.09, 640.65 504.84 C 645.00 504.58, 647.30 504.31, 651.63 503.66 C 655.97 503.00, 658.17 502.54, 662.32 501.55 C 666.46 500.56, 668.58 500.07, 672.35 498.71 C 676.11 497.36, 677.90 496.51, 681.15 494.77 C 684.41 493.04, 686.02 492.12, 688.62 490.03 C 691.21 487.95, 692.38 486.82, 694.13 484.33 C 695.88 481.84, 696.55 480.28, 697.36 477.58 C 698.17 474.87, 698.28 473.46, 698.18 470.81 C 698.07 468.17, 697.76 466.79, 696.83 464.36 C 695.90 461.93, 695.20 460.68, 693.52 458.67 C 691.83 456.66, 690.65 455.72, 688.40 454.31 C 686.16 452.89, 684.88 452.34, 682.28 451.58 C 679.67 450.83, 678.18 450.54, 675.38 450.51 C 672.59 450.48, 671.01 450.68, 668.31 451.45 C 665.61 452.22, 664.25 452.84, 661.88 454.37 C 659.51 455.91, 658.29 456.90, 656.48 459.13 C 654.66 461.37, 653.81 462.75, 652.79 465.53 C 651.77 468.32, 651.41 469.94, 651.37 473.05 C 651.34 476.16, 651.52 477.96, 652.63 481.09 C 653.74 484.22, 654.69 485.81, 656.94 488.69 C 659.19 491.57, 660.63 492.98, 663.89 495.50 C 667.15 498.03, 669.11 499.27, 673.23 501.30 C 677.35 503.34, 679.69 504.20, 684.49 505.69 C 689.29 507.19, 691.98 507.78, 697.22 508.78 C 702.46 509.79, 705.34 510.13, 710.68 510.71 C 716.03 511.30, 719.14 511.38, 723.93 511.69 C 728.71 512.00, 731.09 512.22, 734.59 512.26 C 738.10 512.30, 739.30 512.30, 741.44 511.90 C 743.57 511.50, 744.31 510.91, 745.27 510.26 C 746.23 509.60, 746.16 509.15, 746.26 508.61 C 746.35 508.07, 746.07 507.88, 745.74 507.54 C 745.40 507.21, 745.52 507.19, 744.57 506.94 C 743.62 506.68, 743.00 506.32, 740.99 506.25 C 738.98 506.19, 737.89 506.46, 734.51 506.60 C 731.14 506.73, 728.78 506.99, 724.10 506.94 C 719.43 506.90, 716.33 506.86, 711.13 506.37 C 705.92 505.88, 703.10 505.52, 698.07 504.49 C 693.04 503.46, 690.44 502.79, 685.96 501.23 C 681.48 499.67, 679.32 498.73, 675.66 496.68 C 672.00 494.63, 670.31 493.34, 667.65 490.96 C 664.99 488.58, 663.94 487.22, 662.36 484.78 C 660.77 482.34, 660.41 481.09, 659.73 478.76 C 659.06 476.43, 658.95 475.27, 658.98 473.14 C 659.02 471.02, 659.22 469.97, 659.89 468.12 C 660.56 466.27, 661.12 465.38, 662.33 463.90 C 663.54 462.42, 664.34 461.71, 665.94 460.71 C 667.54 459.70, 668.46 459.34, 670.33 458.87 C 672.20 458.40, 673.32 458.33, 675.29 458.36 C 677.27 458.39, 678.36 458.52, 680.18 459.01 C 682.00 459.49, 682.86 459.88, 684.39 460.80 C 685.92 461.72, 686.69 462.35, 687.84 463.61 C 689.00 464.86, 689.50 465.56, 690.18 467.07 C 690.85 468.58, 691.09 469.45, 691.20 471.15 C 691.30 472.84, 691.25 473.71, 690.68 475.55 C 690.12 477.40, 689.62 478.48, 688.36 480.37 C 687.10 482.27, 686.40 483.19, 684.37 485.04 C 682.34 486.88, 681.00 487.90, 678.21 489.61 C 675.42 491.32, 673.83 492.21, 670.40 493.58 C 666.97 494.95, 664.97 495.46, 661.06 496.44 C 657.16 497.43, 655.00 497.90, 650.87 498.50 C 646.73 499.10, 644.51 499.32, 640.40 499.45 C 636.29 499.57, 634.13 499.54, 630.32 499.14 C 626.51 498.74, 624.56 498.37, 621.35 497.45 C 618.14 496.52, 616.68 495.76, 614.25 494.52 C 611.82 493.27, 610.85 492.54, 609.21 491.22 C 607.56 489.91, 606.90 489.29, 606.03 487.93 C 605.17 486.58, 604.99 485.93, 604.87 484.45 C 604.75 482.98, 604.94 482.19, 605.43 480.56 C 605.93 478.94, 606.37 478.00, 607.36 476.32 C 608.35 474.64, 609.08 473.76, 610.37 472.15 C 611.66 470.53, 612.54 469.62, 613.82 468.25 C 615.11 466.89, 615.75 466.23, 616.80 465.34 C 617.85 464.46, 618.30 464.40, 619.07 463.84 C 619.83 463.29, 620.11 463.19, 620.62 462.56 C 621.13 461.92, 621.49 461.65, 621.63 460.65 C 621.77 459.65, 621.79 458.48, 621.30 457.54" style="stroke: white; fill: white;"/><path d="M 910.61,427.91 C 910.96 426.68, 910.61 425.59, 909.80 423.97 C 908.98 422.36, 908.26 421.41, 906.55 419.83 C 904.85 418.25, 903.59 417.32, 901.27 416.06 C 898.95 414.81, 897.64 414.41, 894.97 413.56 C 892.30 412.71, 890.88 412.27, 887.92 411.82 C 884.95 411.37, 883.34 411.29, 880.15 411.32 C 876.96 411.36, 875.28 411.51, 871.95 411.99 C 868.63 412.48, 866.91 412.84, 863.53 413.76 C 860.14 414.68, 858.38 415.23, 855.04 416.60 C 851.70 417.97, 849.99 418.77, 846.84 420.60 C 843.68 422.44, 842.11 423.47, 839.27 425.77 C 836.43 428.07, 835.01 429.34, 832.62 432.09 C 830.23 434.83, 829.11 436.32, 827.30 439.49 C 825.49 442.66, 824.67 444.40, 823.57 447.93 C 822.46 451.46, 822.01 453.41, 821.77 457.16 C 821.52 460.92, 821.60 462.93, 822.36 466.71 C 823.12 470.49, 823.73 472.49, 825.56 476.08 C 827.38 479.67, 828.64 481.50, 831.49 484.67 C 834.33 487.83, 836.09 489.36, 839.78 491.90 C 843.47 494.44, 845.57 495.53, 849.92 497.38 C 854.28 499.23, 856.80 500.03, 861.54 501.15 C 866.27 502.26, 868.81 502.60, 873.62 502.96 C 878.43 503.32, 880.97 503.28, 885.58 502.96 C 890.20 502.63, 892.54 502.30, 896.71 501.32 C 900.88 500.33, 902.85 499.62, 906.43 498.01 C 910.00 496.41, 911.72 495.50, 914.58 493.28 C 917.45 491.06, 918.76 489.71, 920.76 486.92 C 922.77 484.12, 923.51 482.52, 924.60 479.30 C 925.68 476.08, 925.99 474.30, 926.19 470.83 C 926.39 467.36, 926.19 465.46, 925.59 461.93 C 924.98 458.41, 924.41 456.64, 923.17 453.23 C 921.93 449.81, 921.13 448.08, 919.40 444.85 C 917.67 441.63, 916.58 440.03, 914.54 437.10 C 912.49 434.17, 911.31 432.72, 909.17 430.20 C 907.02 427.69, 905.93 426.27, 903.82 424.51 C 901.71 422.76, 900.45 422.19, 898.60 421.41 C 896.76 420.64, 895.67 420.39, 894.60 420.65 C 893.52 420.90, 893.10 421.64, 893.22 422.70 C 893.33 423.76, 894.06 424.48, 895.18 425.94 C 896.30 427.41, 897.03 428.25, 898.80 430.03 C 900.58 431.81, 901.95 432.67, 904.05 434.84 C 906.15 437.01, 907.36 438.28, 909.31 440.88 C 911.27 443.48, 912.26 444.95, 913.82 447.85 C 915.38 450.75, 916.06 452.35, 917.11 455.38 C 918.16 458.41, 918.59 460.00, 919.07 463.01 C 919.54 466.02, 919.64 467.60, 919.48 470.44 C 919.31 473.29, 919.05 474.66, 918.24 477.23 C 917.44 479.79, 916.95 480.99, 915.47 483.27 C 913.98 485.55, 913.09 486.67, 910.81 488.63 C 908.53 490.58, 907.14 491.50, 904.07 493.05 C 901.00 494.60, 899.23 495.35, 895.46 496.37 C 891.68 497.40, 889.50 497.77, 885.20 498.15 C 880.90 498.53, 878.48 498.58, 873.97 498.26 C 869.45 497.93, 867.06 497.60, 862.64 496.53 C 858.22 495.45, 855.86 494.65, 851.88 492.88 C 847.91 491.11, 846.02 490.04, 842.76 487.67 C 839.51 485.31, 838.02 483.88, 835.61 481.05 C 833.21 478.22, 832.20 476.62, 830.73 473.53 C 829.25 470.44, 828.82 468.78, 828.25 465.59 C 827.69 462.41, 827.66 460.76, 827.91 457.60 C 828.16 454.44, 828.55 452.81, 829.51 449.81 C 830.47 446.81, 831.16 445.32, 832.72 442.60 C 834.28 439.87, 835.23 438.59, 837.32 436.20 C 839.42 433.81, 840.66 432.67, 843.19 430.64 C 845.72 428.62, 847.13 427.68, 849.98 426.07 C 852.82 424.46, 854.38 423.76, 857.42 422.59 C 860.46 421.42, 862.10 420.95, 865.17 420.23 C 868.25 419.50, 869.83 419.24, 872.79 418.97 C 875.76 418.70, 877.24 418.72, 880.01 418.87 C 882.78 419.01, 884.14 419.25, 886.63 419.69 C 889.12 420.14, 890.39 420.34, 892.47 421.07 C 894.54 421.80, 895.31 422.25, 897.00 423.35 C 898.69 424.44, 899.39 425.41, 900.91 426.54 C 902.43 427.68, 903.16 428.30, 904.60 429.00 C 906.03 429.71, 906.88 430.30, 908.08 430.08 C 909.28 429.86, 910.27 429.13, 910.61 427.91" style="stroke: white; fill: white;"/><path d="M 941.56,457.58 C 940.55 457.98, 940.20 458.54, 939.56 459.81 C 938.92 461.08, 938.59 461.95, 938.38 463.94 C 938.18 465.92, 938.32 467.31, 938.52 469.72 C 938.72 472.13, 939.05 473.49, 939.40 476.00 C 939.74 478.51, 939.95 479.83, 940.27 482.26 C 940.58 484.70, 940.69 486.00, 940.97 488.19 C 941.26 490.38, 941.16 491.55, 941.71 493.21 C 942.26 494.88, 942.63 495.76, 943.71 496.51 C 944.79 497.26, 945.83 497.28, 947.10 496.96 C 948.37 496.63, 949.17 496.15, 950.07 494.87 C 950.98 493.60, 951.33 492.63, 951.61 490.60 C 951.90 488.58, 951.51 487.13, 951.51 484.73 C 951.52 482.34, 951.36 481.03, 951.64 478.63 C 951.92 476.22, 952.19 474.96, 952.91 472.69 C 953.63 470.42, 954.10 469.28, 955.26 467.27 C 956.42 465.27, 957.12 464.32, 958.72 462.65 C 960.31 460.98, 961.25 460.16, 963.22 458.94 C 965.19 457.72, 966.28 457.25, 968.57 456.54 C 970.87 455.83, 972.19 455.57, 974.69 455.40 C 977.20 455.23, 978.56 455.25, 981.10 455.68 C 983.64 456.11, 984.95 456.47, 987.37 457.53 C 989.80 458.60, 991.05 459.37, 993.22 461.02 C 995.39 462.67, 996.39 463.58, 998.21 465.77 C 1000.04 467.97, 1000.90 469.32, 1002.36 472.00 C 1003.82 474.68, 1004.43 476.23, 1005.51 479.18 C 1006.58 482.13, 1006.95 483.72, 1007.71 486.73 C 1008.48 489.74, 1008.63 491.43, 1009.33 494.21 C 1010.04 497.00, 1010.37 498.49, 1011.24 500.67 C 1012.11 502.86, 1012.73 503.81, 1013.70 505.13 C 1014.68 506.44, 1015.22 506.98, 1016.12 507.25 C 1017.02 507.52, 1017.68 507.26, 1018.21 506.50 C 1018.74 505.74, 1018.75 505.03, 1018.76 503.45 C 1018.78 501.87, 1018.72 500.84, 1018.29 498.60 C 1017.86 496.36, 1017.40 495.00, 1016.61 492.25 C 1015.83 489.50, 1015.32 487.93, 1014.36 484.85 C 1013.40 481.76, 1013.03 480.05, 1011.82 476.84 C 1010.60 473.63, 1009.95 471.87, 1008.29 468.79 C 1006.63 465.71, 1005.67 464.09, 1003.52 461.43 C 1001.38 458.76, 1000.18 457.56, 997.55 455.47 C 994.92 453.37, 993.39 452.37, 990.37 450.95 C 987.34 449.54, 985.65 449.03, 982.42 448.41 C 979.20 447.79, 977.48 447.68, 974.26 447.84 C 971.03 448.00, 969.33 448.27, 966.31 449.20 C 963.30 450.12, 961.81 450.83, 959.19 452.47 C 956.57 454.11, 955.32 455.20, 953.22 457.38 C 951.12 459.56, 950.25 460.85, 948.71 463.38 C 947.17 465.92, 946.59 467.32, 945.52 470.06 C 944.46 472.80, 944.08 474.31, 943.40 477.09 C 942.71 479.88, 942.48 481.37, 942.09 483.99 C 941.70 486.62, 941.33 488.10, 941.45 490.21 C 941.58 492.32, 941.93 493.31, 942.72 494.55 C 943.52 495.79, 944.32 496.19, 945.42 496.40 C 946.51 496.61, 947.44 496.44, 948.20 495.61 C 948.96 494.77, 949.10 493.88, 949.21 492.22 C 949.32 490.57, 948.93 489.49, 948.75 487.35 C 948.57 485.20, 948.45 483.89, 948.29 481.48 C 948.13 479.06, 948.03 477.74, 947.95 475.27 C 947.88 472.79, 948.00 471.44, 947.90 469.12 C 947.80 466.79, 947.77 465.48, 947.44 463.66 C 947.12 461.84, 946.85 461.17, 946.28 460.00 C 945.71 458.83, 945.56 458.30, 944.61 457.82 C 943.67 457.33, 942.57 457.19, 941.56 457.58" style="stroke: white; fill: white;"/><path d="M 1029.35,410.90 C 1028.47 411.38, 1028.29 411.78, 1027.84 413.00 C 1027.39 414.22, 1027.12 414.96, 1027.10 416.99 C 1027.09 419.02, 1027.21 420.38, 1027.76 423.15 C 1028.31 425.92, 1029.09 427.58, 1029.85 430.85 C 1030.62 434.12, 1030.97 435.91, 1031.59 439.52 C 1032.21 443.13, 1032.41 445.04, 1032.96 448.91 C 1033.51 452.78, 1033.76 454.89, 1034.34 458.87 C 1034.91 462.84, 1035.22 464.90, 1035.83 468.80 C 1036.44 472.70, 1036.65 474.69, 1037.39 478.37 C 1038.13 482.05, 1038.37 484.04, 1039.55 487.21 C 1040.74 490.38, 1041.93 493.04, 1043.32 494.22 C 1044.72 495.40, 1046.15 494.84, 1046.54 493.11 C 1046.93 491.37, 1045.95 488.71, 1045.27 485.53 C 1044.58 482.34, 1043.87 480.69, 1043.09 477.17 C 1042.31 473.64, 1042.01 471.72, 1041.37 467.90 C 1040.73 464.09, 1040.42 462.03, 1039.89 458.09 C 1039.36 454.15, 1039.13 452.08, 1038.73 448.20 C 1038.32 444.33, 1038.17 442.39, 1037.87 438.72 C 1037.56 435.04, 1037.36 433.21, 1037.20 429.82 C 1037.03 426.44, 1037.31 424.60, 1037.04 421.78 C 1036.77 418.97, 1036.42 417.64, 1035.83 415.73 C 1035.25 413.82, 1034.85 413.26, 1034.13 412.23 C 1033.40 411.20, 1033.16 410.85, 1032.21 410.58 C 1031.25 410.32, 1030.22 410.42, 1029.35 410.90" style="stroke: white; fill: white;"/><path d="M 1067.83,464.21 C 1066.97 464.78, 1066.80 465.24, 1066.43 466.38 C 1066.05 467.52, 1065.91 468.23, 1065.95 469.90 C 1066.00 471.58, 1066.24 472.67, 1066.64 474.76 C 1067.04 476.85, 1067.43 478.07, 1067.94 480.33 C 1068.44 482.59, 1068.69 483.78, 1069.15 486.04 C 1069.61 488.31, 1069.72 489.54, 1070.23 491.66 C 1070.73 493.79, 1070.95 495.08, 1071.66 496.67 C 1072.37 498.26, 1072.97 498.78, 1073.78 499.62 C 1074.60 500.46, 1074.96 500.75, 1075.73 500.89 C 1076.49 501.02, 1077.05 500.82, 1077.61 500.29 C 1078.17 499.77, 1078.25 499.36, 1078.51 498.27 C 1078.78 497.19, 1079.02 496.53, 1078.93 494.88 C 1078.85 493.22, 1078.46 492.04, 1078.08 490.00 C 1077.70 487.96, 1077.36 486.88, 1077.04 484.68 C 1076.73 482.47, 1076.70 481.29, 1076.49 478.99 C 1076.28 476.69, 1076.31 475.34, 1075.99 473.17 C 1075.66 471.01, 1075.47 469.81, 1074.87 468.16 C 1074.26 466.51, 1073.79 465.86, 1072.96 464.94 C 1072.13 464.01, 1071.75 463.68, 1070.72 463.53 C 1069.69 463.39, 1068.69 463.64, 1067.83 464.21" style="stroke: white; fill: white;"/><path d="M 1066.07,424.39 C 1066.80 424.68, 1067.06 424.29, 1066.50 423.74 C 1065.95 423.18, 1064.02 421.92, 1063.29 421.63 C 1062.57 421.33, 1062.31 421.73, 1062.86 422.28 C 1063.42 422.83, 1065.34 424.10, 1066.07 424.39" style="stroke: white; fill: white;"/><path d="M 1103.14,459.21 C 1102.29 459.98, 1102.20 460.80, 1101.99 462.28 C 1101.79 463.75, 1101.86 464.63, 1102.11 466.58 C 1102.37 468.52, 1102.76 469.74, 1103.28 472.00 C 1103.81 474.27, 1104.23 475.46, 1104.73 477.90 C 1105.23 480.34, 1105.38 481.67, 1105.79 484.20 C 1106.19 486.73, 1106.37 488.18, 1106.76 490.56 C 1107.15 492.94, 1107.38 494.17, 1107.74 496.11 C 1108.09 498.04, 1107.98 498.96, 1108.53 500.23 C 1109.08 501.51, 1109.46 502.09, 1110.48 502.48 C 1111.50 502.86, 1112.55 502.76, 1113.64 502.15 C 1114.72 501.54, 1115.39 500.87, 1115.90 499.42 C 1116.42 497.97, 1116.33 496.94, 1116.20 494.90 C 1116.07 492.87, 1115.51 491.60, 1115.26 489.25 C 1115.01 486.91, 1114.92 485.60, 1114.94 483.19 C 1114.96 480.78, 1115.01 479.50, 1115.37 477.19 C 1115.73 474.89, 1115.97 473.75, 1116.76 471.67 C 1117.55 469.60, 1118.08 468.63, 1119.33 466.83 C 1120.58 465.02, 1121.31 464.13, 1123.01 462.64 C 1124.71 461.15, 1125.70 460.50, 1127.82 459.39 C 1129.95 458.28, 1131.19 457.73, 1133.65 457.07 C 1136.11 456.41, 1137.45 456.16, 1140.13 456.08 C 1142.80 456.00, 1144.30 456.10, 1147.02 456.65 C 1149.74 457.19, 1151.16 457.62, 1153.73 458.81 C 1156.30 460.00, 1157.59 460.80, 1159.85 462.60 C 1162.11 464.41, 1163.15 465.53, 1165.03 467.83 C 1166.92 470.13, 1167.77 471.43, 1169.28 474.09 C 1170.79 476.76, 1171.43 478.25, 1172.57 481.16 C 1173.71 484.08, 1174.12 485.68, 1174.99 488.66 C 1175.86 491.65, 1175.98 493.34, 1176.92 496.08 C 1177.86 498.83, 1178.51 500.40, 1179.69 502.38 C 1180.87 504.35, 1181.68 505.40, 1182.81 505.95 C 1183.95 506.50, 1184.77 506.23, 1185.36 505.11 C 1185.94 504.00, 1185.97 502.64, 1185.74 500.37 C 1185.50 498.09, 1185.03 496.51, 1184.19 493.74 C 1183.36 490.97, 1182.64 489.54, 1181.56 486.53 C 1180.47 483.51, 1180.08 481.80, 1178.77 478.66 C 1177.47 475.52, 1176.77 473.83, 1175.05 470.82 C 1173.34 467.81, 1172.40 466.30, 1170.20 463.61 C 1168.01 460.91, 1166.80 459.54, 1164.09 457.34 C 1161.39 455.14, 1159.81 454.11, 1156.69 452.59 C 1153.57 451.08, 1151.84 450.52, 1148.50 449.76 C 1145.17 449.00, 1143.37 448.80, 1140.03 448.80 C 1136.70 448.79, 1134.98 448.99, 1131.82 449.73 C 1128.65 450.47, 1126.99 451.05, 1124.22 452.50 C 1121.45 453.95, 1120.16 454.96, 1117.95 456.97 C 1115.73 458.98, 1114.79 460.17, 1113.15 462.55 C 1111.50 464.92, 1110.82 466.22, 1109.72 468.85 C 1108.63 471.49, 1108.28 472.96, 1107.68 475.73 C 1107.08 478.49, 1107.01 479.95, 1106.71 482.68 C 1106.42 485.42, 1106.36 486.81, 1106.20 489.41 C 1106.03 492.02, 1105.69 493.47, 1105.89 495.71 C 1106.10 497.94, 1106.32 499.14, 1107.22 500.58 C 1108.12 502.03, 1109.07 502.59, 1110.39 502.94 C 1111.71 503.30, 1112.84 503.03, 1113.82 502.35 C 1114.80 501.67, 1115.03 500.98, 1115.30 499.55 C 1115.58 498.12, 1115.32 497.23, 1115.20 495.21 C 1115.08 493.19, 1114.98 491.90, 1114.70 489.46 C 1114.43 487.03, 1114.17 485.62, 1113.83 483.03 C 1113.49 480.44, 1113.34 479.09, 1113.00 476.51 C 1112.66 473.94, 1112.58 472.55, 1112.13 470.15 C 1111.67 467.75, 1111.39 466.41, 1110.72 464.49 C 1110.04 462.58, 1109.63 461.78, 1108.74 460.56 C 1107.85 459.35, 1107.39 458.69, 1106.27 458.42 C 1105.15 458.14, 1104.00 458.43, 1103.14 459.21" style="stroke: white; fill: white;"/><path d="M 1202.39,493.63 C 1203.49 494.06, 1204.27 493.77, 1205.98 493.27 C 1207.70 492.78, 1208.80 492.42, 1210.95 491.17 C 1213.10 489.92, 1214.38 488.82, 1216.74 487.01 C 1219.09 485.21, 1220.33 484.11, 1222.72 482.13 C 1225.12 480.16, 1226.41 479.12, 1228.72 477.13 C 1231.03 475.14, 1232.28 474.20, 1234.26 472.18 C 1236.24 470.16, 1237.22 469.12, 1238.63 467.03 C 1240.03 464.93, 1240.66 463.86, 1241.28 461.72 C 1241.89 459.58, 1242.06 458.41, 1241.69 456.34 C 1241.31 454.26, 1240.85 453.03, 1239.38 451.34 C 1237.91 449.65, 1236.75 448.82, 1234.35 447.88 C 1231.95 446.95, 1230.41 446.63, 1227.39 446.69 C 1224.37 446.74, 1222.62 447.22, 1219.25 448.15 C 1215.88 449.08, 1214.00 449.78, 1210.55 451.33 C 1207.09 452.88, 1205.23 453.87, 1201.99 455.92 C 1198.75 457.97, 1197.06 459.11, 1194.34 461.58 C 1191.62 464.05, 1190.23 465.36, 1188.40 468.26 C 1186.57 471.16, 1185.73 472.84, 1185.17 476.09 C 1184.61 479.35, 1184.61 481.27, 1185.61 484.54 C 1186.61 487.81, 1187.65 489.54, 1190.17 492.44 C 1192.68 495.34, 1194.37 496.65, 1198.16 499.04 C 1201.95 501.44, 1204.30 502.51, 1209.12 504.41 C 1213.93 506.30, 1216.67 507.12, 1222.23 508.50 C 1227.80 509.89, 1231.41 510.47, 1236.96 511.32 C 1242.50 512.16, 1245.59 512.50, 1249.96 512.73 C 1254.34 512.96, 1257.01 513.06, 1258.81 512.45 C 1260.61 511.85, 1260.66 510.50, 1258.97 509.69 C 1257.27 508.89, 1254.62 508.97, 1250.35 508.43 C 1246.08 507.90, 1243.03 507.82, 1237.62 507.00 C 1232.21 506.18, 1228.63 505.71, 1223.29 504.32 C 1217.96 502.94, 1215.34 502.03, 1210.93 500.07 C 1206.51 498.11, 1204.40 496.84, 1201.21 494.53 C 1198.02 492.21, 1196.81 490.87, 1194.99 488.49 C 1193.18 486.10, 1192.77 484.85, 1192.14 482.61 C 1191.51 480.36, 1191.47 479.42, 1191.85 477.26 C 1192.24 475.10, 1192.70 474.00, 1194.06 471.81 C 1195.42 469.62, 1196.41 468.40, 1198.67 466.30 C 1200.93 464.20, 1202.46 463.08, 1205.35 461.33 C 1208.23 459.57, 1210.00 458.69, 1213.11 457.53 C 1216.22 456.38, 1218.01 456.00, 1220.90 455.53 C 1223.79 455.07, 1225.27 455.23, 1227.54 455.19 C 1229.81 455.15, 1230.76 455.16, 1232.25 455.33 C 1233.73 455.49, 1234.24 455.64, 1234.97 456.02 C 1235.70 456.40, 1235.84 456.55, 1235.89 457.24 C 1235.95 457.93, 1235.83 458.36, 1235.23 459.46 C 1234.63 460.55, 1234.18 461.25, 1232.90 462.71 C 1231.63 464.16, 1230.69 464.99, 1228.87 466.73 C 1227.04 468.46, 1225.97 469.54, 1223.80 471.39 C 1221.63 473.24, 1220.44 474.28, 1218.03 475.97 C 1215.61 477.66, 1214.16 478.31, 1211.72 479.85 C 1209.29 481.40, 1207.81 482.15, 1205.86 483.70 C 1203.90 485.24, 1203.02 486.09, 1201.94 487.58 C 1200.86 489.07, 1200.38 489.94, 1200.47 491.15 C 1200.55 492.36, 1201.28 493.21, 1202.39 493.63" style="stroke: white; fill: white;"/></svg>
