<svg xmlns="http://www.w3.org/2000/svg" id="canvas" viewBox="267.937 412.530 985.747 128.369"><path d="M 305.68,420.95 C 304.89 421.56, 304.27 422.27, 303.48 424.51 C 302.69 426.75, 302.69 428.19, 301.74 432.15 C 300.80 436.11, 300.16 438.95, 298.74 444.30 C 297.31 449.66, 296.56 452.90, 294.63 458.94 C 292.71 464.98, 291.30 468.35, 289.12 474.51 C 286.94 480.68, 285.76 483.97, 283.73 489.77 C 281.70 495.57, 280.76 498.39, 278.97 503.51 C 277.19 508.63, 276.19 511.24, 274.79 515.37 C 273.39 519.49, 272.67 521.24, 271.96 524.14 C 271.25 527.03, 271.28 528.18, 271.25 529.85 C 271.22 531.52, 271.64 531.82, 271.82 532.48 C 272.01 533.14, 272.01 532.97, 272.19 533.14 C 272.37 533.31, 272.46 533.42, 272.73 533.33 C 273.00 533.24, 273.20 533.30, 273.54 532.69 C 273.89 532.09, 274.02 531.84, 274.45 530.31 C 274.89 528.77, 275.08 527.83, 275.71 525.01 C 276.34 522.20, 276.48 520.37, 277.60 516.22 C 278.73 512.08, 279.66 509.44, 281.32 504.30 C 282.97 499.16, 283.88 496.32, 285.87 490.51 C 287.86 484.71, 289.03 481.44, 291.26 475.28 C 293.48 469.12, 294.92 465.75, 297.00 459.72 C 299.07 453.70, 299.94 450.47, 301.65 445.16 C 303.35 439.84, 304.37 437.08, 305.52 433.15 C 306.67 429.22, 307.02 427.85, 307.40 425.52 C 307.79 423.18, 307.79 422.39, 307.44 421.47 C 307.10 420.56, 306.48 420.35, 305.68 420.95" style="stroke: white; fill: white;"/><path d="M 288.66,436.08 C 289.50 436.35, 290.19 436.44, 292.16 435.85 C 294.13 435.26, 295.34 434.47, 298.51 433.12 C 301.69 431.78, 303.88 430.75, 308.04 429.13 C 312.20 427.52, 314.71 426.56, 319.32 425.05 C 323.93 423.55, 326.46 422.73, 331.09 421.61 C 335.72 420.49, 338.20 419.95, 342.49 419.46 C 346.77 418.97, 348.94 419.06, 352.51 419.15 C 356.09 419.24, 357.65 419.48, 360.36 419.92 C 363.08 420.36, 364.14 420.75, 366.08 421.36 C 368.03 421.97, 369.11 422.94, 370.11 422.98 C 371.11 423.02, 371.59 422.52, 371.08 421.54 C 370.56 420.56, 369.55 419.22, 367.54 418.08 C 365.52 416.94, 364.03 416.32, 361.02 415.84 C 358.02 415.35, 356.29 415.56, 352.51 415.67 C 348.72 415.78, 346.52 415.76, 342.10 416.37 C 337.68 416.97, 335.13 417.57, 330.39 418.70 C 325.65 419.83, 323.10 420.65, 318.39 422.02 C 313.67 423.39, 311.13 424.22, 306.80 425.57 C 302.47 426.92, 300.00 427.45, 296.72 428.75 C 293.44 430.05, 292.15 430.92, 290.40 432.07 C 288.64 433.21, 288.30 433.67, 287.95 434.47 C 287.60 435.27, 287.81 435.80, 288.66 436.08" style="stroke: white; fill: white;"/><path d="M 271.75,484.83 C 272.55 485.19, 273.16 485.16, 275.14 484.90 C 277.13 484.64, 278.37 484.23, 281.67 483.53 C 284.98 482.83, 287.28 482.37, 291.67 481.41 C 296.06 480.44, 301.34 479.86, 303.62 478.73 C 305.91 477.59, 305.63 476.01, 303.10 475.73 C 300.56 475.44, 295.41 476.67, 290.93 477.30 C 286.45 477.93, 284.07 478.17, 280.69 478.90 C 277.30 479.62, 275.91 480.06, 274.01 480.91 C 272.10 481.76, 271.61 482.35, 271.16 483.14 C 270.71 483.92, 270.96 484.48, 271.75 484.83" style="stroke: white; fill: white;"/><path d="M 387.41,436.11 C 386.62 436.55, 386.13 437.06, 385.17 438.93 C 384.22 440.80, 383.87 442.08, 382.62 445.44 C 381.38 448.79, 380.74 451.10, 378.94 455.70 C 377.13 460.30, 376.14 463.17, 373.60 468.44 C 371.06 473.71, 369.23 476.64, 366.25 482.04 C 363.26 487.44, 361.60 490.24, 358.67 495.44 C 355.75 500.63, 354.12 503.37, 351.64 508.02 C 349.15 512.66, 348.06 514.90, 346.24 518.68 C 344.41 522.46, 343.38 524.06, 342.51 526.94 C 341.65 529.81, 341.52 531.09, 341.91 533.06 C 342.31 535.03, 342.92 535.86, 344.49 536.80 C 346.05 537.74, 347.41 538.12, 349.74 537.77 C 352.08 537.41, 353.35 536.56, 356.18 535.03 C 359.02 533.49, 360.44 532.26, 363.90 530.09 C 367.37 527.93, 369.83 526.54, 373.52 524.18 C 377.21 521.83, 379.39 520.42, 382.35 518.33 C 385.31 516.23, 387.30 514.95, 388.30 513.70 C 389.29 512.46, 388.89 511.78, 387.32 512.11 C 385.75 512.43, 383.61 513.56, 380.45 515.33 C 377.29 517.10, 375.24 518.71, 371.52 520.96 C 367.79 523.20, 365.37 524.62, 361.83 526.55 C 358.29 528.48, 356.48 529.21, 353.83 530.60 C 351.17 531.99, 350.20 532.75, 348.57 533.49 C 346.93 534.23, 346.40 534.43, 345.66 534.30 C 344.91 534.16, 344.72 534.05, 344.84 532.81 C 344.95 531.57, 345.40 530.67, 346.23 528.10 C 347.07 525.52, 347.48 523.69, 349.02 519.92 C 350.56 516.14, 351.58 513.87, 353.93 509.21 C 356.28 504.54, 357.88 501.80, 360.77 496.61 C 363.65 491.41, 365.31 488.61, 368.36 483.22 C 371.42 477.83, 373.29 474.89, 376.02 469.65 C 378.75 464.42, 379.88 461.55, 382.01 457.03 C 384.15 452.51, 385.31 450.39, 386.71 447.05 C 388.11 443.71, 388.55 442.40, 389.02 440.33 C 389.50 438.27, 389.42 437.56, 389.10 436.71 C 388.78 435.87, 388.19 435.66, 387.41 436.11" style="stroke: white; fill: white;"/><path d="M 453.31,488.28 C 452.93 487.64, 452.38 487.19, 451.03 486.93 C 449.68 486.67, 448.79 486.34, 446.57 486.99 C 444.36 487.64, 442.84 488.30, 439.96 490.18 C 437.09 492.06, 435.48 493.63, 432.19 496.38 C 428.90 499.14, 426.72 500.83, 423.51 503.96 C 420.31 507.09, 418.56 508.88, 416.16 512.02 C 413.77 515.16, 412.63 516.74, 411.52 519.67 C 410.42 522.59, 410.18 524.13, 410.66 526.65 C 411.13 529.17, 411.95 530.51, 413.91 532.27 C 415.87 534.03, 417.36 534.84, 420.46 535.47 C 423.55 536.10, 425.56 535.89, 429.38 535.41 C 433.20 534.93, 435.36 534.41, 439.55 533.07 C 443.75 531.72, 446.00 530.81, 450.36 528.69 C 454.72 526.56, 457.20 525.20, 461.34 522.43 C 465.47 519.66, 467.69 517.93, 471.05 514.83 C 474.41 511.73, 475.92 510.02, 478.15 506.94 C 480.37 503.87, 481.30 502.28, 482.15 499.43 C 483.01 496.58, 483.05 495.03, 482.43 492.69 C 481.82 490.34, 481.10 489.26, 479.09 487.72 C 477.09 486.18, 475.41 485.49, 472.40 484.99 C 469.39 484.49, 467.49 484.73, 464.03 485.22 C 460.57 485.72, 458.58 486.32, 455.10 487.46 C 451.62 488.60, 449.53 489.33, 446.63 490.93 C 443.74 492.53, 442.45 493.67, 440.64 495.44 C 438.82 497.21, 438.32 498.29, 437.57 499.77 C 436.82 501.24, 436.77 502.07, 436.87 502.81 C 436.97 503.55, 437.43 503.71, 438.08 503.48 C 438.72 503.26, 438.97 502.63, 440.07 501.70 C 441.18 500.76, 441.83 500.17, 443.59 498.82 C 445.34 497.46, 446.28 496.37, 448.85 494.94 C 451.43 493.51, 453.31 492.68, 456.46 491.67 C 459.62 490.66, 461.57 490.23, 464.62 489.90 C 467.68 489.58, 469.26 489.80, 471.74 490.02 C 474.21 490.24, 475.52 490.31, 477.00 491.00 C 478.48 491.68, 478.87 492.01, 479.13 493.45 C 479.39 494.89, 479.08 495.91, 478.30 498.21 C 477.53 500.51, 477.14 502.08, 475.25 504.95 C 473.37 507.81, 472.02 509.54, 468.89 512.53 C 465.77 515.53, 463.63 517.25, 459.65 519.91 C 455.67 522.58, 453.23 523.90, 449.01 525.85 C 444.79 527.81, 442.56 528.61, 438.55 529.70 C 434.55 530.78, 432.43 531.08, 428.98 531.30 C 425.54 531.52, 423.86 531.20, 421.32 530.79 C 418.79 530.38, 417.76 530.18, 416.31 529.24 C 414.87 528.30, 414.30 527.70, 414.10 526.09 C 413.91 524.48, 414.33 523.55, 415.33 521.18 C 416.34 518.81, 416.98 517.16, 419.12 514.24 C 421.26 511.32, 422.92 509.52, 426.03 506.58 C 429.14 503.65, 431.37 501.98, 434.68 499.57 C 438.00 497.15, 439.87 496.05, 442.60 494.52 C 445.33 492.99, 446.63 492.68, 448.34 491.91 C 450.06 491.15, 450.27 491.04, 451.19 490.69 C 452.10 490.34, 452.50 490.64, 452.93 490.16 C 453.36 489.68, 453.69 488.93, 453.31 488.28" style="stroke: white; fill: white;"/><path d="M 541.76,489.35 C 541.28 488.50, 540.51 487.53, 538.60 486.90 C 536.68 486.27, 535.25 485.82, 532.17 486.20 C 529.10 486.59, 526.94 487.20, 523.23 488.82 C 519.51 490.45, 517.45 491.73, 513.61 494.32 C 509.76 496.91, 507.52 498.60, 504.00 501.76 C 500.47 504.92, 498.72 506.90, 495.98 510.10 C 493.23 513.31, 491.77 514.87, 490.26 517.80 C 488.76 520.73, 488.30 522.19, 488.44 524.76 C 488.57 527.34, 489.14 528.87, 490.93 530.67 C 492.73 532.48, 494.22 533.25, 497.41 533.79 C 500.60 534.34, 502.58 533.99, 506.87 533.40 C 511.15 532.81, 513.76 532.30, 518.82 530.86 C 523.87 529.43, 527.20 528.12, 532.13 526.22 C 537.07 524.32, 539.73 523.19, 543.48 521.36 C 547.23 519.53, 549.55 518.24, 550.87 517.07 C 552.19 515.89, 551.80 515.14, 550.08 515.47 C 548.36 515.79, 546.09 517.12, 542.28 518.69 C 538.47 520.27, 535.91 521.54, 531.05 523.35 C 526.19 525.17, 522.89 526.50, 517.98 527.77 C 513.06 529.04, 510.44 529.39, 506.46 529.71 C 502.48 530.04, 500.71 529.72, 498.07 529.39 C 495.44 529.06, 494.52 529.01, 493.28 528.07 C 492.03 527.14, 491.77 526.41, 491.86 524.72 C 491.94 523.03, 492.35 522.10, 493.71 519.62 C 495.06 517.14, 496.13 515.39, 498.62 512.31 C 501.12 509.23, 502.81 507.22, 506.19 504.21 C 509.56 501.20, 511.80 499.57, 515.52 497.28 C 519.23 494.98, 521.28 493.91, 524.75 492.75 C 528.22 491.59, 530.22 491.85, 532.86 491.49 C 535.50 491.13, 536.33 491.02, 537.95 490.95 C 539.57 490.89, 540.22 491.48, 540.98 491.16 C 541.74 490.84, 542.23 490.21, 541.76 489.35" style="stroke: white; fill: white;"/><path d="M 601.77,443.17 C 601.06 443.48, 600.70 443.89, 599.86 445.29 C 599.02 446.69, 598.70 447.52, 597.57 450.17 C 596.43 452.82, 595.87 454.77, 594.19 458.54 C 592.50 462.31, 591.52 464.71, 589.14 469.00 C 586.77 473.29, 584.94 475.58, 582.31 480.00 C 579.68 484.42, 578.34 486.78, 576.00 491.09 C 573.66 495.39, 572.53 497.63, 570.59 501.53 C 568.66 505.43, 567.54 507.31, 566.32 510.59 C 565.10 513.86, 564.90 515.42, 564.50 517.89 C 564.11 520.36, 564.22 521.46, 564.36 522.94 C 564.51 524.41, 564.91 524.68, 565.23 525.27 C 565.54 525.86, 565.67 525.78, 565.94 525.89 C 566.20 526.00, 566.31 525.95, 566.54 525.81 C 566.76 525.66, 566.82 525.71, 567.07 525.17 C 567.33 524.63, 567.52 524.44, 567.81 523.12 C 568.11 521.80, 568.14 520.83, 568.54 518.56 C 568.94 516.29, 568.83 514.92, 569.81 511.78 C 570.78 508.64, 571.68 506.74, 573.43 502.87 C 575.17 499.01, 576.27 496.73, 578.55 492.46 C 580.83 488.19, 582.13 485.87, 584.81 481.51 C 587.50 477.15, 589.37 474.87, 591.96 470.65 C 594.56 466.42, 595.68 464.05, 597.79 460.38 C 599.90 456.71, 601.35 455.04, 602.52 452.27 C 603.69 449.51, 603.47 448.24, 603.65 446.54 C 603.83 444.83, 603.81 444.42, 603.43 443.75 C 603.06 443.07, 602.49 442.86, 601.77 443.17" style="stroke: white; fill: white;"/><path d="M 628.10,477.44 C 627.64 476.97, 627.35 476.70, 626.04 476.69 C 624.72 476.69, 623.76 476.46, 621.51 477.41 C 619.25 478.35, 617.91 479.48, 614.76 481.42 C 611.62 483.35, 609.63 484.60, 605.78 487.08 C 601.94 489.56, 599.65 491.16, 595.56 493.80 C 591.46 496.44, 588.86 497.78, 585.30 500.28 C 581.74 502.78, 579.91 503.94, 577.76 506.30 C 575.61 508.65, 575.13 509.91, 574.55 512.05 C 573.96 514.20, 574.04 515.22, 574.86 517.01 C 575.67 518.80, 576.54 519.74, 578.62 520.99 C 580.69 522.23, 582.16 522.71, 585.23 523.24 C 588.29 523.77, 590.13 523.65, 593.94 523.65 C 597.76 523.64, 600.02 523.54, 604.31 523.22 C 608.60 522.90, 610.75 522.61, 615.40 522.06 C 620.06 521.51, 622.72 521.26, 627.59 520.45 C 632.46 519.64, 635.22 519.22, 639.76 518.01 C 644.30 516.80, 646.31 515.87, 650.28 514.39 C 654.24 512.91, 656.39 512.18, 659.59 510.60 C 662.79 509.02, 664.19 508.04, 666.30 506.50 C 668.41 504.95, 669.10 504.21, 670.15 502.88 C 671.20 501.55, 671.50 500.63, 671.56 499.84 C 671.62 499.06, 671.15 498.81, 670.46 498.97 C 669.77 499.12, 669.42 499.82, 668.11 500.63 C 666.80 501.44, 665.95 501.69, 663.90 503.03 C 661.85 504.36, 660.81 505.63, 657.85 507.30 C 654.89 508.98, 652.88 509.84, 649.10 511.40 C 645.33 512.95, 643.37 513.87, 638.97 515.09 C 634.57 516.31, 631.89 516.71, 627.11 517.48 C 622.33 518.25, 619.66 518.49, 615.07 518.93 C 610.47 519.37, 608.33 519.59, 604.14 519.69 C 599.95 519.79, 597.72 519.73, 594.12 519.43 C 590.51 519.12, 588.85 518.65, 586.13 518.16 C 583.40 517.66, 582.22 517.47, 580.49 516.95 C 578.76 516.43, 578.08 516.33, 577.49 515.56 C 576.90 514.79, 576.90 514.41, 577.53 513.10 C 578.16 511.79, 578.69 511.02, 580.64 509.01 C 582.60 506.99, 583.96 505.53, 587.30 503.04 C 590.63 500.56, 593.25 499.15, 597.32 496.58 C 601.40 494.01, 603.73 492.42, 607.67 490.21 C 611.61 488.01, 613.77 487.10, 617.01 485.55 C 620.26 484.01, 621.87 483.55, 623.89 482.49 C 625.91 481.42, 626.25 480.93, 627.14 480.24 C 628.02 479.55, 628.13 479.59, 628.32 479.03 C 628.52 478.47, 628.55 477.91, 628.10 477.44" style="stroke: white; fill: white;"/><path d="M 669.97,500.06 C 670.72 500.30, 671.33 499.98, 672.69 499.62 C 674.04 499.25, 674.64 498.98, 676.72 498.24 C 678.80 497.51, 680.46 497.05, 683.09 495.92 C 685.72 494.79, 687.19 493.89, 689.86 492.58 C 692.53 491.26, 693.89 490.65, 696.44 489.35 C 698.98 488.04, 700.42 487.45, 702.57 486.06 C 704.73 484.67, 705.80 483.93, 707.20 482.40 C 708.61 480.86, 709.22 480.04, 709.61 478.39 C 710.00 476.75, 709.99 475.66, 709.13 474.16 C 708.28 472.67, 707.49 471.71, 705.33 470.91 C 703.18 470.11, 701.48 469.83, 698.36 470.15 C 695.24 470.47, 693.34 471.13, 689.72 472.53 C 686.10 473.93, 684.12 475.10, 680.27 477.16 C 676.41 479.21, 674.17 480.50, 670.46 482.82 C 666.74 485.14, 664.72 486.34, 661.68 488.75 C 658.64 491.15, 657.26 492.38, 655.26 494.83 C 653.26 497.27, 652.55 498.46, 651.68 500.99 C 650.81 503.52, 650.53 504.90, 650.90 507.46 C 651.28 510.02, 651.91 511.48, 653.54 513.79 C 655.17 516.09, 656.34 517.20, 659.05 518.98 C 661.77 520.76, 663.43 521.47, 667.11 522.69 C 670.79 523.90, 673.00 524.40, 677.46 525.03 C 681.92 525.66, 684.43 525.74, 689.41 525.84 C 694.39 525.93, 697.07 525.84, 702.36 525.51 C 707.65 525.19, 711.02 524.81, 715.88 524.20 C 720.73 523.58, 723.07 523.16, 726.62 522.43 C 730.17 521.69, 732.28 521.23, 733.63 520.53 C 734.97 519.82, 734.85 519.10, 733.35 518.88 C 731.84 518.65, 729.69 518.93, 726.11 519.40 C 722.54 519.86, 720.27 520.54, 715.48 521.19 C 710.69 521.84, 707.38 522.31, 702.18 522.64 C 696.98 522.97, 694.34 523.03, 689.50 522.83 C 684.67 522.64, 682.21 522.45, 678.00 521.67 C 673.79 520.90, 671.72 520.27, 668.45 518.97 C 665.18 517.66, 663.90 516.73, 661.65 515.14 C 659.41 513.56, 658.57 512.71, 657.21 511.03 C 655.85 509.36, 655.24 508.52, 654.86 506.77 C 654.49 505.02, 654.62 504.18, 655.33 502.30 C 656.04 500.42, 656.68 499.53, 658.41 497.38 C 660.14 495.24, 661.20 493.90, 663.98 491.58 C 666.76 489.26, 668.72 488.03, 672.31 485.80 C 675.90 483.57, 678.18 482.27, 681.94 480.43 C 685.70 478.59, 687.71 477.57, 691.10 476.61 C 694.49 475.64, 696.26 475.83, 698.89 475.60 C 701.52 475.36, 702.72 475.37, 704.25 475.45 C 705.78 475.53, 706.09 475.62, 706.53 475.98 C 706.98 476.35, 706.92 476.61, 706.47 477.27 C 706.03 477.92, 705.60 478.33, 704.32 479.26 C 703.04 480.19, 702.11 480.80, 700.09 481.92 C 698.06 483.03, 696.67 483.64, 694.19 484.83 C 691.72 486.01, 690.38 486.74, 687.71 487.85 C 685.04 488.97, 683.51 489.39, 680.84 490.42 C 678.17 491.45, 676.42 491.88, 674.36 493.01 C 672.31 494.13, 671.66 494.95, 670.57 496.03 C 669.48 497.11, 669.03 497.60, 668.91 498.41 C 668.79 499.21, 669.21 499.81, 669.97 500.06" style="stroke: white; fill: white;"/><path d="M 951.51,446.26 C 951.39 445.33, 950.86 444.33, 949.60 443.22 C 948.34 442.10, 947.37 441.48, 945.22 440.68 C 943.07 439.87, 941.61 439.30, 938.86 439.20 C 936.10 439.10, 934.76 439.47, 931.44 440.19 C 928.11 440.91, 926.37 441.31, 922.25 442.80 C 918.12 444.28, 915.69 445.21, 910.82 447.60 C 905.96 449.98, 903.02 451.51, 897.91 454.72 C 892.79 457.93, 890.03 459.88, 885.24 463.63 C 880.46 467.38, 877.95 469.51, 873.98 473.48 C 870.00 477.45, 868.16 479.57, 865.38 483.48 C 862.60 487.40, 861.54 489.51, 860.07 493.06 C 858.60 496.62, 858.01 498.23, 858.02 501.25 C 858.03 504.26, 858.49 505.81, 860.13 508.12 C 861.78 510.42, 863.14 511.64, 866.24 512.79 C 869.35 513.94, 871.47 513.94, 875.67 513.86 C 879.87 513.78, 882.24 513.44, 887.23 512.39 C 892.23 511.34, 895.09 510.54, 900.65 508.61 C 906.21 506.69, 909.33 505.44, 915.03 502.75 C 920.73 500.05, 923.62 498.35, 929.16 495.15 C 934.71 491.94, 937.76 490.15, 942.75 486.73 C 947.73 483.31, 950.15 481.48, 954.10 478.06 C 958.06 474.64, 959.78 472.84, 962.52 469.62 C 965.26 466.40, 966.30 464.91, 967.80 461.95 C 969.30 459.00, 969.72 457.52, 970.03 454.84 C 970.35 452.15, 970.00 450.78, 969.38 448.52 C 968.75 446.26, 968.11 445.22, 966.91 443.54 C 965.71 441.85, 964.97 440.99, 963.40 440.09 C 961.83 439.20, 960.12 438.88, 959.05 439.08 C 957.99 439.28, 957.71 440.20, 958.09 441.09 C 958.47 441.98, 959.88 442.55, 960.95 443.54 C 962.01 444.52, 962.53 444.81, 963.43 446.04 C 964.33 447.27, 964.89 448.01, 965.44 449.69 C 965.98 451.37, 966.33 452.30, 966.15 454.44 C 965.97 456.58, 965.73 457.73, 964.54 460.39 C 963.36 463.06, 962.65 464.60, 960.22 467.75 C 957.79 470.90, 956.17 472.73, 952.41 476.15 C 948.65 479.56, 946.30 481.41, 941.42 484.81 C 936.54 488.22, 933.51 490.02, 928.03 493.18 C 922.55 496.34, 919.68 498.02, 914.04 500.61 C 908.40 503.20, 905.30 504.38, 899.83 506.14 C 894.35 507.89, 891.49 508.58, 886.66 509.39 C 881.84 510.20, 879.49 510.31, 875.69 510.20 C 871.88 510.08, 870.17 509.67, 867.65 508.83 C 865.12 507.98, 864.24 507.47, 863.06 505.95 C 861.87 504.44, 861.72 503.58, 861.73 501.24 C 861.74 498.90, 861.92 497.49, 863.11 494.25 C 864.30 491.01, 865.13 488.86, 867.66 485.05 C 870.19 481.25, 871.93 479.13, 875.75 475.23 C 879.57 471.33, 882.04 469.22, 886.74 465.55 C 891.44 461.89, 894.19 459.97, 899.25 456.91 C 904.32 453.85, 907.25 452.40, 912.07 450.24 C 916.88 448.08, 919.30 447.26, 923.32 446.12 C 927.34 444.97, 929.13 444.88, 932.17 444.53 C 935.20 444.17, 936.24 444.10, 938.50 444.35 C 940.76 444.60, 941.71 445.22, 943.47 445.76 C 945.24 446.30, 945.99 446.62, 947.33 447.04 C 948.67 447.47, 949.35 448.04, 950.18 447.89 C 951.02 447.73, 951.63 447.19, 951.51 446.26" style="stroke: white; fill: white;"/><path d="M 996.50,474.62 C 995.77 474.80, 995.54 475.16, 994.52 476.22 C 993.50 477.28, 992.71 477.96, 991.38 479.93 C 990.06 481.90, 989.38 483.61, 987.90 486.06 C 986.41 488.51, 985.34 489.89, 983.96 492.18 C 982.59 494.47, 981.74 495.87, 981.01 497.51 C 980.28 499.15, 980.07 499.77, 980.32 500.36 C 980.56 500.96, 981.06 501.17, 982.24 500.49 C 983.43 499.80, 984.29 499.02, 986.24 496.94 C 988.20 494.85, 989.29 492.94, 992.03 490.06 C 994.76 487.18, 996.41 485.43, 999.94 482.55 C 1003.46 479.67, 1005.71 478.02, 1009.65 475.66 C 1013.59 473.31, 1015.78 472.26, 1019.66 470.76 C 1023.54 469.25, 1025.75 468.78, 1029.05 468.15 C 1032.35 467.52, 1033.94 467.52, 1036.17 467.62 C 1038.40 467.72, 1039.10 467.90, 1040.21 468.64 C 1041.32 469.39, 1041.64 469.89, 1041.71 471.36 C 1041.79 472.83, 1041.39 473.71, 1040.59 475.98 C 1039.79 478.25, 1039.09 479.85, 1037.71 482.71 C 1036.34 485.56, 1035.36 487.32, 1033.72 490.26 C 1032.07 493.19, 1030.95 494.74, 1029.48 497.38 C 1028.01 500.03, 1027.14 501.30, 1026.35 503.46 C 1025.55 505.62, 1025.37 507.11, 1025.51 508.19 C 1025.65 509.27, 1026.21 509.44, 1027.06 508.85 C 1027.91 508.27, 1028.47 507.07, 1029.77 505.26 C 1031.07 503.45, 1031.97 502.34, 1033.55 499.79 C 1035.14 497.23, 1035.99 495.49, 1037.70 492.51 C 1039.40 489.53, 1040.52 487.91, 1042.08 484.89 C 1043.64 481.86, 1044.83 480.24, 1045.50 477.39 C 1046.17 474.54, 1046.10 472.91, 1045.43 470.62 C 1044.77 468.34, 1043.97 467.36, 1042.18 465.97 C 1040.38 464.58, 1039.24 463.96, 1036.47 463.68 C 1033.69 463.40, 1031.91 463.74, 1028.30 464.55 C 1024.70 465.36, 1022.50 466.06, 1018.45 467.74 C 1014.39 469.41, 1012.16 470.52, 1008.04 472.94 C 1003.91 475.36, 1001.62 477.03, 997.83 479.82 C 994.03 482.62, 992.23 484.22, 989.05 486.90 C 985.88 489.58, 983.89 490.85, 981.97 493.22 C 980.05 495.59, 979.73 497.13, 979.47 498.75 C 979.21 500.37, 979.68 501.00, 980.67 501.32 C 981.66 501.64, 982.79 501.52, 984.41 500.36 C 986.03 499.19, 987.03 497.70, 988.75 495.48 C 990.48 493.26, 991.48 491.76, 993.06 489.24 C 994.63 486.72, 995.60 485.11, 996.64 482.89 C 997.67 480.68, 997.94 479.65, 998.24 478.14 C 998.55 476.63, 998.52 476.05, 998.17 475.34 C 997.82 474.64, 997.23 474.45, 996.50 474.62" style="stroke: white; fill: white;"/><path d="M 1093.40,416.83 C 1092.65 417.25, 1092.34 417.73, 1091.33 419.47 C 1090.32 421.21, 1089.76 422.41, 1088.37 425.53 C 1086.98 428.65, 1086.33 430.94, 1084.37 435.07 C 1082.40 439.21, 1080.96 441.57, 1078.53 446.22 C 1076.11 450.88, 1074.59 453.60, 1072.23 458.36 C 1069.88 463.13, 1068.68 465.63, 1066.74 470.06 C 1064.79 474.49, 1063.85 476.74, 1062.52 480.52 C 1061.18 484.31, 1060.50 485.96, 1060.06 488.99 C 1059.63 492.02, 1060.01 493.51, 1060.33 495.67 C 1060.64 497.83, 1060.95 498.51, 1061.65 499.79 C 1062.35 501.07, 1063.05 501.62, 1063.83 502.05 C 1064.62 502.48, 1065.18 502.18, 1065.59 501.95 C 1065.99 501.72, 1065.87 501.24, 1065.86 500.91 C 1065.84 500.57, 1065.70 500.76, 1065.49 500.26 C 1065.28 499.77, 1065.08 499.44, 1064.80 498.43 C 1064.51 497.42, 1064.21 497.01, 1064.06 495.23 C 1063.91 493.44, 1063.73 492.24, 1064.04 489.50 C 1064.35 486.76, 1064.54 485.18, 1065.62 481.52 C 1066.69 477.86, 1067.58 475.58, 1069.41 471.20 C 1071.23 466.82, 1072.39 464.32, 1074.75 459.62 C 1077.11 454.91, 1078.62 452.24, 1081.19 447.66 C 1083.76 443.09, 1085.31 440.79, 1087.59 436.75 C 1089.88 432.72, 1091.09 430.65, 1092.60 427.50 C 1094.12 424.35, 1094.67 423.03, 1095.17 421.01 C 1095.67 418.98, 1095.46 418.21, 1095.10 417.38 C 1094.75 416.54, 1094.16 416.41, 1093.40 416.83" style="stroke: white; fill: white;"/><path d="M 1115.12,464.19 C 1114.37 464.48, 1114.23 465.01, 1113.16 466.27 C 1112.09 467.52, 1111.25 468.28, 1109.77 470.46 C 1108.29 472.64, 1107.34 474.35, 1105.76 477.17 C 1104.18 479.99, 1103.40 481.81, 1101.88 484.58 C 1100.37 487.34, 1099.47 488.68, 1098.19 491.00 C 1096.90 493.32, 1096.26 494.46, 1095.46 496.17 C 1094.66 497.88, 1094.41 498.54, 1094.17 499.55 C 1093.94 500.57, 1094.15 500.82, 1094.27 501.25 C 1094.39 501.68, 1094.66 501.61, 1094.79 501.69 C 1094.92 501.78, 1094.81 501.64, 1094.94 501.68 C 1095.07 501.72, 1095.03 502.01, 1095.45 501.91 C 1095.87 501.81, 1096.29 501.90, 1097.04 501.18 C 1097.79 500.47, 1098.11 499.87, 1099.19 498.33 C 1100.26 496.79, 1101.04 495.74, 1102.43 493.47 C 1103.82 491.20, 1104.55 489.69, 1106.13 486.97 C 1107.71 484.26, 1108.59 482.60, 1110.33 479.92 C 1112.06 477.24, 1113.47 475.93, 1114.80 473.58 C 1116.13 471.23, 1116.58 469.92, 1117.00 468.16 C 1117.41 466.40, 1117.25 465.57, 1116.88 464.78 C 1116.50 463.98, 1115.86 463.89, 1115.12 464.19" style="stroke: white; fill: white;"/><path d="M 1128.33,427.61 C 1128.02 428.02, 1128.30 428.42, 1128.79 428.27 C 1129.28 428.13, 1130.48 427.29, 1130.79 426.88 C 1131.09 426.47, 1130.81 426.07, 1130.32 426.21 C 1129.83 426.36, 1128.63 427.20, 1128.33 427.61" style="stroke: white; fill: white;"/><path d="M 1139.02,469.86 C 1138.13 470.53, 1137.62 471.78, 1136.57 473.78 C 1135.52 475.78, 1135.06 477.21, 1133.77 479.85 C 1132.48 482.49, 1131.71 484.27, 1130.11 486.97 C 1128.50 489.68, 1127.19 491.07, 1125.75 493.38 C 1124.31 495.68, 1123.68 496.90, 1122.91 498.49 C 1122.14 500.09, 1121.79 500.76, 1121.89 501.35 C 1121.98 501.93, 1122.49 502.12, 1123.40 501.43 C 1124.31 500.74, 1125.11 499.98, 1126.45 497.91 C 1127.79 495.84, 1128.17 494.09, 1130.10 491.08 C 1132.04 488.07, 1133.29 486.09, 1136.12 482.85 C 1138.95 479.61, 1140.79 477.67, 1144.25 474.88 C 1147.70 472.08, 1149.83 470.82, 1153.40 468.88 C 1156.97 466.95, 1158.97 466.21, 1162.08 465.19 C 1165.20 464.16, 1166.62 463.92, 1168.98 463.77 C 1171.34 463.63, 1172.33 463.76, 1173.88 464.44 C 1175.42 465.12, 1176.04 465.66, 1176.72 467.18 C 1177.40 468.70, 1177.40 469.73, 1177.28 472.04 C 1177.17 474.36, 1177.03 475.86, 1176.13 478.77 C 1175.24 481.68, 1174.43 483.44, 1172.82 486.59 C 1171.22 489.74, 1169.97 491.59, 1168.11 494.53 C 1166.25 497.47, 1164.83 499.00, 1163.52 501.29 C 1162.20 503.58, 1162.04 504.50, 1161.56 505.99 C 1161.07 507.47, 1160.97 508.06, 1161.08 508.72 C 1161.20 509.38, 1161.54 509.52, 1162.13 509.28 C 1162.72 509.03, 1162.97 508.58, 1164.04 507.49 C 1165.11 506.41, 1165.92 505.99, 1167.48 503.86 C 1169.03 501.72, 1170.01 499.88, 1171.83 496.81 C 1173.66 493.75, 1174.87 491.87, 1176.61 488.55 C 1178.35 485.22, 1179.42 483.47, 1180.52 480.18 C 1181.62 476.89, 1182.16 475.08, 1182.11 472.10 C 1182.05 469.12, 1181.59 467.49, 1180.26 465.27 C 1178.93 463.06, 1177.76 462.14, 1175.46 461.03 C 1173.16 459.92, 1171.68 459.59, 1168.76 459.72 C 1165.84 459.85, 1164.27 460.45, 1160.87 461.69 C 1157.47 462.94, 1155.51 463.83, 1151.77 465.94 C 1148.03 468.06, 1145.84 469.39, 1142.17 472.27 C 1138.50 475.15, 1136.60 477.13, 1133.43 480.34 C 1130.25 483.55, 1128.66 485.35, 1126.28 488.31 C 1123.89 491.28, 1122.64 492.74, 1121.50 495.17 C 1120.35 497.61, 1120.33 498.99, 1120.53 500.50 C 1120.73 502.01, 1121.36 502.59, 1122.50 502.71 C 1123.63 502.84, 1124.70 502.41, 1126.22 501.12 C 1127.74 499.84, 1128.45 498.59, 1130.09 496.28 C 1131.74 493.97, 1132.76 492.40, 1134.46 489.56 C 1136.15 486.72, 1137.26 484.94, 1138.55 482.10 C 1139.84 479.25, 1140.40 477.66, 1140.90 475.32 C 1141.39 472.99, 1141.39 471.54, 1141.02 470.44 C 1140.64 469.35, 1139.91 469.19, 1139.02 469.86" style="stroke: white; fill: white;"/><path d="M 1200.99,481.26 C 1201.64 481.83, 1202.46 482.16, 1204.15 482.22 C 1205.85 482.27, 1206.98 482.18, 1209.47 481.52 C 1211.97 480.85, 1213.72 480.13, 1216.63 478.89 C 1219.54 477.65, 1221.24 476.81, 1224.01 475.32 C 1226.77 473.82, 1228.20 472.93, 1230.44 471.41 C 1232.69 469.89, 1233.87 469.30, 1235.22 467.71 C 1236.57 466.12, 1237.09 465.16, 1237.20 463.48 C 1237.32 461.81, 1237.09 460.73, 1235.80 459.35 C 1234.50 457.97, 1233.35 457.10, 1230.74 456.58 C 1228.13 456.06, 1226.34 456.19, 1222.75 456.76 C 1219.16 457.33, 1216.99 457.95, 1212.80 459.42 C 1208.61 460.89, 1206.01 462.01, 1201.80 464.11 C 1197.58 466.21, 1195.21 467.49, 1191.72 469.92 C 1188.23 472.34, 1186.54 473.61, 1184.33 476.25 C 1182.13 478.89, 1181.29 480.44, 1180.68 483.12 C 1180.08 485.81, 1180.21 487.21, 1181.30 489.67 C 1182.39 492.13, 1183.49 493.50, 1186.13 495.42 C 1188.78 497.34, 1190.68 498.05, 1194.53 499.27 C 1198.37 500.49, 1200.69 500.80, 1205.37 501.53 C 1210.06 502.26, 1212.76 502.53, 1217.95 502.91 C 1223.14 503.29, 1226.43 503.27, 1231.33 503.42 C 1236.23 503.58, 1238.78 503.83, 1242.44 503.69 C 1246.10 503.56, 1248.21 503.28, 1249.64 502.77 C 1251.06 502.25, 1251.02 501.54, 1249.59 501.11 C 1248.15 500.68, 1246.08 500.76, 1242.45 500.60 C 1238.82 500.44, 1236.28 500.46, 1231.42 500.32 C 1226.57 500.18, 1223.27 500.30, 1218.18 499.90 C 1213.08 499.49, 1210.41 499.15, 1205.94 498.28 C 1201.46 497.42, 1199.24 496.89, 1195.80 495.59 C 1192.35 494.29, 1190.93 493.29, 1188.70 491.78 C 1186.47 490.26, 1185.54 489.57, 1184.64 488.02 C 1183.73 486.46, 1183.67 485.86, 1184.19 484.00 C 1184.72 482.13, 1185.36 480.96, 1187.26 478.71 C 1189.16 476.46, 1190.51 475.05, 1193.72 472.75 C 1196.92 470.45, 1199.26 469.14, 1203.31 467.20 C 1207.35 465.25, 1209.95 464.19, 1213.96 463.03 C 1217.96 461.87, 1220.11 461.69, 1223.33 461.41 C 1226.54 461.13, 1227.96 461.49, 1230.03 461.63 C 1232.10 461.77, 1232.81 461.82, 1233.68 462.10 C 1234.56 462.38, 1234.64 462.52, 1234.41 463.04 C 1234.18 463.57, 1233.83 463.90, 1232.52 464.73 C 1231.20 465.56, 1230.01 465.99, 1227.84 467.20 C 1225.67 468.42, 1224.32 469.48, 1221.67 470.79 C 1219.01 472.09, 1217.37 472.67, 1214.57 473.71 C 1211.77 474.75, 1209.92 475.09, 1207.66 475.97 C 1205.41 476.84, 1204.67 477.43, 1203.31 478.11 C 1201.96 478.78, 1201.36 478.71, 1200.89 479.34 C 1200.43 479.97, 1200.34 480.69, 1200.99 481.26" style="stroke: white; fill: white;"/></svg>
