<svg xmlns="http://www.w3.org/2000/svg" id="canvas" viewBox="254.238 406.579 1071.725 98.788"><path d="M 299.19,410.94 C 298.24 412.04, 297.74 413.41, 297.47 416.49 C 297.20 419.58, 297.57 421.81, 297.83 426.37 C 298.09 430.93, 298.35 433.97, 298.77 439.28 C 299.18 444.58, 299.49 447.57, 299.93 452.91 C 300.37 458.24, 300.61 461.06, 300.96 465.96 C 301.32 470.87, 301.47 473.21, 301.70 477.44 C 301.92 481.66, 302.01 483.64, 302.10 487.09 C 302.19 490.54, 301.91 492.21, 302.14 494.69 C 302.36 497.17, 302.66 498.12, 303.24 499.50 C 303.82 500.87, 304.46 501.15, 305.05 501.57 C 305.65 501.98, 305.94 501.61, 306.23 501.59 C 306.52 501.57, 306.24 501.56, 306.50 501.47 C 306.76 501.38, 307.08 501.68, 307.52 501.15 C 307.96 500.62, 308.45 500.23, 308.69 498.83 C 308.94 497.43, 308.92 496.60, 308.75 494.16 C 308.58 491.72, 308.30 490.07, 307.86 486.65 C 307.41 483.22, 307.02 481.23, 306.53 477.02 C 306.03 472.81, 305.81 470.49, 305.37 465.60 C 304.94 460.72, 304.68 457.90, 304.33 452.58 C 303.99 447.26, 303.82 444.28, 303.65 439.01 C 303.49 433.74, 303.47 430.73, 303.51 426.23 C 303.54 421.73, 304.09 419.57, 303.84 416.51 C 303.59 413.46, 303.18 412.09, 302.25 410.97 C 301.32 409.86, 300.15 409.83, 299.19 410.94" style="stroke: white; fill: white;"/><path d="M 258.86,428.75 C 259.80 429.14, 260.17 429.05, 261.97 428.51 C 263.76 427.97, 264.43 427.29, 267.83 426.05 C 271.22 424.82, 273.46 423.68, 278.94 422.32 C 284.41 420.96, 288.17 420.36, 295.23 419.26 C 302.29 418.16, 306.51 417.67, 314.24 416.84 C 321.96 416.01, 326.29 415.65, 333.85 415.11 C 341.41 414.57, 345.41 414.37, 352.03 414.14 C 358.65 413.92, 361.83 413.89, 366.96 413.98 C 372.10 414.08, 374.33 414.42, 377.70 414.62 C 381.08 414.83, 382.08 415.05, 383.84 414.99 C 385.61 414.93, 385.84 414.56, 386.52 414.34 C 387.21 414.11, 387.03 414.10, 387.28 413.85 C 387.52 413.61, 387.76 413.51, 387.75 413.11 C 387.74 412.70, 387.89 412.41, 387.21 411.81 C 386.54 411.21, 386.24 410.55, 384.37 410.10 C 382.49 409.65, 381.34 409.57, 377.84 409.58 C 374.35 409.58, 372.09 409.88, 366.90 410.15 C 361.71 410.42, 358.53 410.52, 351.88 410.91 C 345.23 411.29, 341.22 411.53, 333.63 412.09 C 326.04 412.65, 321.70 413.01, 313.92 413.73 C 306.15 414.45, 301.92 414.88, 294.75 415.68 C 287.57 416.49, 283.82 416.92, 278.04 417.77 C 272.26 418.62, 269.64 418.86, 265.86 419.93 C 262.07 421.00, 260.84 421.80, 259.11 423.13 C 257.39 424.45, 257.30 425.43, 257.24 426.56 C 257.19 427.68, 257.92 428.36, 258.86 428.75" style="stroke: white; fill: white;"/><path d="M 287.49,462.68 C 288.29 463.26, 288.54 463.35, 290.27 463.25 C 291.99 463.15, 293.05 463.03, 296.11 462.18 C 299.16 461.33, 301.05 460.12, 305.54 458.99 C 310.03 457.85, 313.06 457.40, 318.55 456.51 C 324.04 455.62, 327.27 455.27, 332.99 454.55 C 338.71 453.83, 341.72 453.41, 347.16 452.91 C 352.59 452.42, 355.61 452.36, 360.16 452.07 C 364.70 451.78, 366.82 451.94, 369.89 451.46 C 372.96 450.98, 374.42 450.49, 375.51 449.67 C 376.60 448.85, 376.54 448.00, 375.34 447.36 C 374.13 446.71, 372.60 446.45, 369.49 446.46 C 366.38 446.47, 364.32 446.94, 359.77 447.41 C 355.22 447.88, 352.19 448.19, 346.74 448.80 C 341.29 449.41, 338.26 449.83, 332.51 450.47 C 326.75 451.10, 323.55 451.39, 317.95 451.97 C 312.35 452.55, 309.27 452.80, 304.51 453.36 C 299.75 453.91, 297.45 453.94, 294.16 454.74 C 290.88 455.54, 289.67 456.24, 288.09 457.37 C 286.51 458.49, 286.39 459.30, 286.27 460.36 C 286.15 461.42, 286.69 462.10, 287.49 462.68" style="stroke: white; fill: white;"/><path d="M 393.90,425.08 C 393.15 425.66, 393.04 425.81, 392.64 427.33 C 392.23 428.85, 391.65 429.84, 391.89 432.67 C 392.12 435.50, 393.13 437.47, 393.81 441.50 C 394.50 445.52, 394.73 448.14, 395.31 452.79 C 395.90 457.44, 396.02 460.14, 396.74 464.76 C 397.47 469.38, 397.91 471.75, 398.93 475.89 C 399.95 480.03, 400.50 481.95, 401.86 485.46 C 403.22 488.97, 403.88 490.69, 405.73 493.43 C 407.58 496.16, 408.75 497.37, 411.11 499.13 C 413.47 500.89, 414.99 501.84, 417.52 502.24 C 420.06 502.64, 422.49 502.05, 423.78 501.13 C 425.07 500.22, 424.87 498.69, 423.96 497.66 C 423.05 496.63, 421.00 496.76, 419.23 495.99 C 417.47 495.21, 416.79 495.05, 415.14 493.79 C 413.49 492.52, 412.60 491.77, 410.99 489.66 C 409.37 487.56, 408.47 486.26, 407.06 483.25 C 405.65 480.23, 404.98 478.43, 403.92 474.59 C 402.86 470.74, 402.39 468.47, 401.76 464.01 C 401.14 459.56, 401.05 456.92, 400.80 452.30 C 400.56 447.68, 400.54 445.03, 400.53 440.92 C 400.52 436.81, 401.12 434.67, 400.77 431.75 C 400.41 428.84, 399.62 427.83, 398.74 426.36 C 397.87 424.90, 397.35 424.69, 396.38 424.43 C 395.42 424.17, 394.65 424.50, 393.90 425.08" style="stroke: white; fill: white;"/><path d="M 477.07,469.06 C 477.23 467.80, 476.94 466.51, 475.55 465.05 C 474.16 463.60, 472.83 462.56, 470.14 461.80 C 467.44 461.05, 465.42 460.65, 462.08 461.30 C 458.73 461.95, 456.82 463.13, 453.41 465.03 C 450.00 466.94, 447.99 468.22, 445.02 470.83 C 442.06 473.44, 440.30 474.98, 438.59 478.07 C 436.88 481.15, 436.34 483.13, 436.48 486.25 C 436.62 489.37, 437.20 491.29, 439.29 493.68 C 441.38 496.07, 443.39 497.07, 446.94 498.22 C 450.48 499.38, 452.77 499.43, 457.01 499.45 C 461.24 499.48, 463.75 499.19, 468.10 498.37 C 472.45 497.54, 474.85 496.83, 478.76 495.34 C 482.68 493.85, 484.68 492.99, 487.69 490.91 C 490.70 488.83, 492.21 487.60, 493.83 484.95 C 495.44 482.31, 495.81 480.55, 495.77 477.68 C 495.72 474.80, 495.16 473.07, 493.60 470.58 C 492.04 468.10, 490.54 466.83, 487.95 465.24 C 485.35 463.65, 483.44 463.14, 480.62 462.63 C 477.80 462.12, 476.01 462.24, 473.83 462.69 C 471.66 463.15, 470.82 464.04, 469.74 464.91 C 468.66 465.78, 468.56 466.30, 468.43 467.04 C 468.31 467.78, 468.64 468.14, 469.13 468.61 C 469.62 469.08, 469.88 469.04, 470.87 469.39 C 471.87 469.73, 472.47 470.01, 474.10 470.34 C 475.73 470.66, 477.02 470.60, 479.04 471.00 C 481.05 471.41, 482.37 471.62, 484.18 472.36 C 485.99 473.10, 486.96 473.61, 488.08 474.71 C 489.20 475.81, 489.68 476.50, 489.77 477.86 C 489.85 479.22, 489.64 479.92, 488.51 481.51 C 487.38 483.11, 486.49 484.13, 484.12 485.83 C 481.76 487.53, 480.08 488.62, 476.67 490.00 C 473.27 491.38, 470.99 492.07, 467.09 492.72 C 463.19 493.36, 460.81 493.44, 457.19 493.24 C 453.56 493.04, 451.65 492.50, 448.96 491.71 C 446.27 490.93, 445.05 490.42, 443.74 489.33 C 442.43 488.24, 442.25 487.80, 442.41 486.28 C 442.57 484.75, 443.13 483.75, 444.55 481.69 C 445.96 479.63, 447.06 478.05, 449.49 475.99 C 451.92 473.94, 453.89 472.69, 456.69 471.40 C 459.48 470.11, 461.16 469.85, 463.47 469.54 C 465.79 469.23, 466.61 469.57, 468.26 469.84 C 469.92 470.10, 470.45 470.56, 471.75 470.87 C 473.06 471.17, 473.72 471.73, 474.78 471.37 C 475.85 471.01, 476.92 470.33, 477.07 469.06" style="stroke: white; fill: white;"/><path d="M 547.24,464.76 C 546.88 463.53, 546.09 462.50, 544.19 461.56 C 542.30 460.61, 540.73 459.96, 537.76 460.04 C 534.79 460.12, 532.66 460.49, 529.34 461.95 C 526.03 463.40, 524.20 464.86, 521.17 467.31 C 518.13 469.76, 516.50 471.18, 514.15 474.20 C 511.81 477.21, 510.27 479.04, 509.44 482.38 C 508.62 485.72, 508.78 487.87, 510.02 490.90 C 511.25 493.93, 512.55 495.64, 515.63 497.54 C 518.71 499.44, 520.97 499.80, 525.40 500.41 C 529.83 501.01, 532.54 500.94, 537.76 500.57 C 542.98 500.19, 546.01 499.75, 551.49 498.51 C 556.96 497.28, 559.92 496.37, 565.13 494.38 C 570.34 492.39, 573.03 491.21, 577.55 488.57 C 582.07 485.93, 584.29 484.42, 587.71 481.17 C 591.13 477.92, 592.54 476.02, 594.66 472.32 C 596.79 468.62, 597.48 466.53, 598.35 462.67 C 599.22 458.81, 599.26 456.68, 599.01 453.02 C 598.75 449.35, 598.35 447.31, 597.09 444.35 C 595.82 441.38, 594.75 439.90, 592.67 438.20 C 590.59 436.49, 589.03 435.73, 586.67 435.82 C 584.31 435.92, 582.54 436.58, 580.89 438.67 C 579.24 440.76, 578.66 442.78, 578.41 446.26 C 578.17 449.75, 578.84 451.99, 579.67 456.08 C 580.49 460.16, 581.20 462.61, 582.54 466.68 C 583.88 470.76, 584.80 472.92, 586.39 476.46 C 587.97 480.00, 588.79 481.58, 590.47 484.39 C 592.16 487.20, 593.01 488.48, 594.80 490.51 C 596.59 492.55, 597.52 493.44, 599.42 494.58 C 601.33 495.71, 602.35 496.05, 604.33 496.21 C 606.32 496.37, 607.39 496.22, 609.34 495.39 C 611.30 494.56, 612.31 493.85, 614.09 492.08 C 615.87 490.30, 616.67 488.94, 618.25 486.51 C 619.83 484.07, 620.42 482.38, 621.98 479.91 C 623.54 477.43, 624.59 476.14, 626.05 474.14 C 627.51 472.14, 628.27 471.19, 629.27 469.89 C 630.27 468.59, 630.69 468.15, 631.05 467.64 C 631.42 467.12, 631.27 467.04, 631.11 467.31 C 630.95 467.59, 630.51 467.93, 630.24 469.00 C 629.98 470.07, 629.77 470.90, 629.80 472.67 C 629.82 474.43, 629.95 475.65, 630.38 477.82 C 630.81 479.99, 631.07 481.30, 631.93 483.52 C 632.78 485.73, 633.30 486.93, 634.67 488.90 C 636.03 490.87, 636.82 491.82, 638.75 493.38 C 640.69 494.95, 641.82 495.69, 644.36 496.70 C 646.89 497.72, 648.41 498.22, 651.42 498.45 C 654.43 498.69, 656.07 498.42, 659.42 497.88 C 662.77 497.34, 664.55 496.87, 668.16 495.73 C 671.77 494.60, 673.81 493.85, 677.47 492.20 C 681.13 490.54, 682.98 489.48, 686.46 487.46 C 689.94 485.44, 691.76 484.31, 694.89 482.10 C 698.01 479.90, 699.78 478.86, 702.07 476.45 C 704.37 474.04, 705.39 472.60, 706.36 470.06 C 707.33 467.51, 707.47 466.03, 706.92 463.70 C 706.36 461.38, 705.63 459.98, 703.59 458.41 C 701.55 456.85, 699.76 456.03, 696.72 455.89 C 693.68 455.75, 691.61 456.36, 688.39 457.71 C 685.17 459.05, 683.44 460.29, 680.63 462.59 C 677.82 464.89, 676.04 466.23, 674.35 469.21 C 672.65 472.19, 672.04 474.25, 672.16 477.49 C 672.27 480.74, 672.78 482.79, 674.90 485.44 C 677.02 488.09, 678.95 489.06, 682.76 490.74 C 686.57 492.43, 688.95 492.92, 693.95 493.87 C 698.95 494.81, 701.96 495.08, 707.75 495.46 C 713.55 495.85, 716.92 495.85, 722.93 495.80 C 728.93 495.74, 732.21 495.51, 737.80 495.18 C 743.38 494.85, 748.29 495.06, 750.85 494.15 C 753.41 493.25, 753.26 491.20, 750.61 490.65 C 747.97 490.09, 743.14 491.14, 737.61 491.37 C 732.07 491.60, 728.82 491.85, 722.92 491.81 C 717.02 491.77, 713.69 491.74, 708.11 491.17 C 702.53 490.61, 699.58 490.14, 695.02 488.99 C 690.46 487.84, 688.30 486.96, 685.30 485.41 C 682.30 483.86, 681.38 482.80, 680.00 481.22 C 678.63 479.64, 678.32 479.10, 678.45 477.51 C 678.57 475.92, 679.26 475.04, 680.63 473.27 C 682.01 471.50, 683.15 470.23, 685.33 468.66 C 687.52 467.09, 689.21 466.36, 691.56 465.41 C 693.91 464.46, 695.27 464.28, 697.08 463.92 C 698.90 463.56, 699.67 463.48, 700.63 463.62 C 701.59 463.76, 701.85 463.89, 701.86 464.63 C 701.86 465.36, 701.60 465.87, 700.65 467.30 C 699.70 468.72, 698.99 469.75, 697.11 471.74 C 695.23 473.72, 693.98 475.09, 691.26 477.23 C 688.55 479.36, 686.76 480.52, 683.52 482.41 C 680.29 484.30, 678.50 485.26, 675.08 486.67 C 671.66 488.08, 669.72 488.67, 666.41 489.46 C 663.10 490.25, 661.40 490.42, 658.55 490.63 C 655.69 490.84, 654.43 490.72, 652.12 490.49 C 649.81 490.25, 648.79 490.02, 647.00 489.46 C 645.20 488.89, 644.40 488.58, 643.17 487.68 C 641.94 486.79, 641.56 486.30, 640.85 485.00 C 640.14 483.69, 639.97 482.84, 639.64 481.16 C 639.30 479.47, 639.32 478.47, 639.17 476.57 C 639.01 474.67, 639.24 473.56, 638.86 471.66 C 638.48 469.76, 638.26 468.62, 637.27 467.06 C 636.28 465.49, 635.44 464.66, 633.90 463.83 C 632.37 463.00, 631.40 462.75, 629.59 462.91 C 627.77 463.07, 626.79 463.43, 624.82 464.64 C 622.86 465.84, 621.72 466.84, 619.77 468.95 C 617.83 471.07, 616.93 472.69, 615.09 475.21 C 613.25 477.73, 612.09 479.17, 610.57 481.54 C 609.04 483.90, 608.37 485.27, 607.46 487.04 C 606.55 488.81, 606.50 489.57, 606.01 490.38 C 605.51 491.18, 605.57 491.21, 604.99 491.04 C 604.41 490.88, 604.11 490.55, 603.12 489.56 C 602.12 488.56, 601.44 487.79, 600.00 486.06 C 598.56 484.33, 597.58 483.34, 595.93 480.92 C 594.28 478.50, 593.30 477.17, 591.77 473.97 C 590.24 470.77, 589.36 468.70, 588.27 464.91 C 587.18 461.12, 586.73 458.70, 586.33 455.02 C 585.93 451.35, 586.30 449.28, 586.27 446.54 C 586.25 443.81, 586.19 442.59, 586.21 441.35 C 586.24 440.10, 586.05 440.05, 586.39 440.31 C 586.72 440.58, 587.08 441.28, 587.89 442.67 C 588.69 444.05, 589.44 445.03, 590.42 447.25 C 591.41 449.46, 592.31 450.86, 592.81 453.73 C 593.31 456.61, 593.43 458.38, 592.93 461.62 C 592.43 464.87, 591.99 466.68, 590.31 469.95 C 588.64 473.21, 587.54 474.93, 584.55 477.93 C 581.57 480.92, 579.57 482.41, 575.39 484.92 C 571.21 487.43, 568.62 488.62, 563.65 490.49 C 558.69 492.35, 555.81 493.21, 550.58 494.25 C 545.35 495.28, 542.37 495.57, 537.52 495.68 C 532.67 495.79, 530.03 495.54, 526.31 494.82 C 522.59 494.09, 521.05 493.29, 518.91 492.06 C 516.77 490.84, 516.18 490.23, 515.61 488.69 C 515.04 487.14, 515.28 486.40, 516.06 484.34 C 516.83 482.29, 517.61 480.71, 519.47 478.41 C 521.34 476.11, 522.84 474.66, 525.39 472.84 C 527.94 471.02, 529.66 470.17, 532.23 469.32 C 534.80 468.47, 536.15 468.80, 538.24 468.59 C 540.34 468.39, 541.14 468.46, 542.69 468.28 C 544.24 468.11, 545.10 468.43, 546.01 467.72 C 546.92 467.02, 547.60 465.99, 547.24 464.76" style="stroke: white; fill: white;"/><path d="M 929.45,431.25 C 929.63 430.01, 929.23 428.89, 928.05 427.43 C 926.87 425.97, 925.89 425.04, 923.55 423.95 C 921.22 422.86, 919.54 422.11, 916.38 421.98 C 913.21 421.86, 911.43 422.26, 907.72 423.32 C 904.01 424.39, 901.92 425.18, 897.85 427.32 C 893.77 429.46, 891.44 430.89, 887.34 434.01 C 883.24 437.12, 880.91 439.07, 877.35 442.90 C 873.78 446.72, 871.90 449.01, 869.52 453.13 C 867.15 457.26, 866.05 459.46, 865.47 463.52 C 864.89 467.58, 865.09 469.91, 866.63 473.44 C 868.16 476.97, 869.75 478.66, 873.14 481.16 C 876.53 483.67, 878.90 484.60, 883.57 485.97 C 888.23 487.35, 891.11 487.79, 896.45 488.04 C 901.79 488.29, 904.76 487.98, 910.28 487.21 C 915.80 486.44, 918.79 485.82, 924.05 484.20 C 929.31 482.58, 932.06 481.59, 936.56 479.11 C 941.07 476.63, 943.17 475.02, 946.58 471.81 C 949.98 468.61, 951.51 466.78, 953.58 463.10 C 955.66 459.42, 956.43 457.29, 956.95 453.41 C 957.47 449.52, 957.30 447.30, 956.20 443.69 C 955.11 440.09, 953.97 438.25, 951.49 435.37 C 949.02 432.49, 947.21 431.21, 943.82 429.30 C 940.43 427.38, 938.32 426.68, 934.53 425.81 C 930.75 424.94, 928.58 424.82, 924.89 424.93 C 921.20 425.04, 919.04 425.24, 916.10 426.35 C 913.16 427.46, 911.78 428.80, 910.20 430.48 C 908.63 432.16, 908.25 433.56, 908.22 434.77 C 908.18 435.97, 908.95 436.43, 910.01 436.51 C 911.06 436.59, 911.78 435.80, 913.49 435.18 C 915.20 434.56, 916.20 434.16, 918.56 433.43 C 920.92 432.70, 922.37 431.82, 925.29 431.52 C 928.22 431.23, 930.08 431.31, 933.19 431.94 C 936.29 432.58, 938.07 433.22, 940.81 434.71 C 943.55 436.21, 944.94 437.26, 946.89 439.42 C 948.84 441.57, 949.64 442.83, 950.55 445.49 C 951.45 448.16, 951.71 449.72, 951.43 452.76 C 951.14 455.80, 950.74 457.55, 949.13 460.70 C 947.52 463.84, 946.30 465.57, 943.37 468.50 C 940.44 471.43, 938.57 473.01, 934.46 475.35 C 930.35 477.70, 927.77 478.69, 922.82 480.22 C 917.87 481.75, 914.94 482.35, 909.72 483.00 C 904.50 483.66, 901.65 483.85, 896.72 483.49 C 891.78 483.13, 889.12 482.52, 885.04 481.20 C 880.95 479.88, 879.00 478.87, 876.29 476.88 C 873.58 474.90, 872.65 473.81, 871.50 471.28 C 870.34 468.75, 870.08 467.38, 870.52 464.23 C 870.96 461.08, 871.64 459.14, 873.69 455.52 C 875.74 451.89, 877.46 449.61, 880.77 446.10 C 884.08 442.59, 886.35 440.72, 890.25 437.96 C 894.14 435.21, 896.46 433.94, 900.24 432.31 C 904.02 430.68, 906.07 430.25, 909.15 429.82 C 912.23 429.40, 913.39 429.81, 915.62 430.18 C 917.86 430.55, 918.67 431.08, 920.33 431.66 C 921.99 432.24, 922.56 432.69, 923.93 433.09 C 925.30 433.49, 926.07 434.02, 927.18 433.66 C 928.28 433.29, 929.27 432.50, 929.45 431.25" style="stroke: white; fill: white;"/><path d="M 975.34,454.31 C 974.45 455.01, 974.26 455.71, 973.88 457.33 C 973.50 458.95, 973.31 460.09, 973.42 462.42 C 973.53 464.76, 973.79 466.45, 974.43 469.01 C 975.08 471.58, 975.58 473.11, 976.64 475.25 C 977.70 477.40, 978.30 478.41, 979.73 479.74 C 981.15 481.07, 982.02 481.53, 983.76 481.90 C 985.51 482.26, 986.58 482.20, 988.44 481.56 C 990.30 480.92, 991.27 480.30, 993.07 478.71 C 994.86 477.12, 995.64 475.83, 997.43 473.61 C 999.23 471.40, 1000.02 469.84, 1002.05 467.64 C 1004.09 465.44, 1005.47 464.28, 1007.61 462.63 C 1009.74 460.97, 1010.84 460.24, 1012.72 459.38 C 1014.59 458.51, 1015.40 458.28, 1016.98 458.30 C 1018.56 458.31, 1019.26 458.56, 1020.63 459.44 C 1022.00 460.32, 1022.47 461.10, 1023.83 462.68 C 1025.19 464.27, 1025.90 465.39, 1027.41 467.36 C 1028.93 469.33, 1029.72 470.49, 1031.39 472.52 C 1033.05 474.56, 1033.89 475.73, 1035.73 477.55 C 1037.56 479.36, 1038.58 480.33, 1040.57 481.60 C 1042.56 482.86, 1043.82 483.35, 1045.67 483.88 C 1047.52 484.40, 1048.44 484.46, 1049.83 484.24 C 1051.23 484.02, 1052.09 483.58, 1052.64 482.77 C 1053.20 481.97, 1052.99 481.00, 1052.60 480.20 C 1052.21 479.41, 1051.56 479.40, 1050.69 478.82 C 1049.82 478.23, 1049.45 477.97, 1048.24 477.30 C 1047.03 476.63, 1046.05 476.47, 1044.66 475.48 C 1043.27 474.48, 1042.64 473.92, 1041.28 472.33 C 1039.91 470.74, 1039.32 469.55, 1037.83 467.53 C 1036.35 465.51, 1035.57 464.28, 1033.85 462.21 C 1032.14 460.15, 1031.29 458.97, 1029.28 457.20 C 1027.26 455.43, 1026.19 454.46, 1023.77 453.37 C 1021.35 452.29, 1019.91 451.90, 1017.19 451.78 C 1014.47 451.65, 1012.98 451.81, 1010.17 452.75 C 1007.36 453.68, 1005.87 454.59, 1003.15 456.44 C 1000.42 458.29, 999.04 459.76, 996.54 462.00 C 994.03 464.24, 992.64 465.51, 990.62 467.66 C 988.61 469.80, 987.67 471.00, 986.46 472.73 C 985.26 474.46, 985.01 475.28, 984.60 476.30 C 984.19 477.32, 984.39 477.74, 984.41 477.83 C 984.43 477.92, 984.66 477.74, 984.71 476.76 C 984.75 475.78, 984.76 474.88, 984.63 472.94 C 984.51 470.99, 984.45 469.47, 984.08 467.04 C 983.70 464.62, 983.42 462.98, 982.75 460.81 C 982.08 458.64, 981.62 457.61, 980.74 456.21 C 979.86 454.80, 979.43 454.17, 978.35 453.79 C 977.27 453.41, 976.24 453.60, 975.34 454.31" style="stroke: white; fill: white;"/><path d="M 1065.53,418.83 C 1064.65 419.59, 1064.35 420.30, 1064.05 422.31 C 1063.74 424.32, 1063.58 425.72, 1064.00 428.88 C 1064.42 432.03, 1065.31 434.17, 1066.16 438.09 C 1067.01 442.02, 1067.36 444.43, 1068.24 448.49 C 1069.11 452.55, 1069.58 454.65, 1070.54 458.40 C 1071.49 462.14, 1071.96 463.97, 1073.03 467.23 C 1074.09 470.49, 1074.53 472.03, 1075.86 474.70 C 1077.18 477.38, 1078.02 478.55, 1079.65 480.60 C 1081.27 482.65, 1082.16 483.74, 1083.99 484.93 C 1085.82 486.13, 1087.19 486.43, 1088.79 486.59 C 1090.40 486.74, 1091.26 486.38, 1092.01 485.72 C 1092.76 485.06, 1092.80 484.17, 1092.55 483.29 C 1092.29 482.41, 1091.64 482.10, 1090.74 481.33 C 1089.84 480.55, 1089.17 480.42, 1088.04 479.43 C 1086.91 478.45, 1086.27 477.99, 1085.08 476.40 C 1083.89 474.80, 1083.34 473.72, 1082.09 471.46 C 1080.85 469.20, 1080.05 468.01, 1078.86 465.10 C 1077.67 462.19, 1077.11 460.47, 1076.16 456.92 C 1075.20 453.38, 1074.75 451.36, 1074.09 447.38 C 1073.43 443.40, 1073.27 440.95, 1072.87 437.03 C 1072.48 433.10, 1072.54 430.85, 1072.10 427.76 C 1071.66 424.67, 1071.41 423.43, 1070.68 421.58 C 1069.94 419.72, 1069.46 419.04, 1068.43 418.49 C 1067.40 417.94, 1066.41 418.06, 1065.53 418.83" style="stroke: white; fill: white;"/><path d="M 1108.62,461.76 C 1107.72 462.40, 1107.45 462.97, 1107.08 464.42 C 1106.72 465.86, 1106.57 466.93, 1106.80 468.99 C 1107.04 471.06, 1107.43 472.48, 1108.27 474.74 C 1109.10 477.01, 1109.73 478.44, 1110.99 480.32 C 1112.25 482.21, 1113.21 483.14, 1114.57 484.17 C 1115.92 485.20, 1116.74 485.50, 1117.77 485.49 C 1118.80 485.48, 1119.30 485.01, 1119.71 484.12 C 1120.11 483.23, 1119.96 482.54, 1119.80 481.04 C 1119.65 479.54, 1119.42 478.50, 1118.92 476.62 C 1118.43 474.74, 1117.94 473.59, 1117.32 471.63 C 1116.70 469.67, 1116.51 468.52, 1115.84 466.81 C 1115.16 465.11, 1114.81 464.23, 1113.96 463.11 C 1113.11 461.99, 1112.65 461.49, 1111.59 461.22 C 1110.52 460.95, 1109.52 461.12, 1108.62 461.76" style="stroke: white; fill: white;"/><path d="M 1108.67,432.87 C 1109.75 432.60, 1109.99 432.60, 1109.83 432.54 C 1109.67 432.48, 1108.80 432.74, 1107.88 432.57 C 1106.95 432.41, 1106.18 431.67, 1105.19 431.70 C 1104.19 431.72, 1103.06 432.26, 1102.92 432.71 C 1102.77 433.15, 1103.30 433.88, 1104.45 433.91 C 1105.60 433.94, 1107.60 433.14, 1108.67 432.87" style="stroke: white; fill: white;"/><path d="M 1147.51,462.27 C 1146.61 463.13, 1146.38 464.20, 1146.17 466.01 C 1145.97 467.82, 1146.07 469.03, 1146.48 471.31 C 1146.89 473.60, 1147.29 475.20, 1148.22 477.46 C 1149.16 479.71, 1149.86 480.88, 1151.16 482.58 C 1152.47 484.29, 1153.14 485.03, 1154.73 485.97 C 1156.32 486.91, 1157.28 487.25, 1159.10 487.28 C 1160.92 487.31, 1162.01 487.08, 1163.84 486.14 C 1165.67 485.20, 1166.54 484.31, 1168.24 482.57 C 1169.94 480.82, 1170.66 479.54, 1172.33 477.41 C 1174.01 475.28, 1174.86 473.90, 1176.61 471.92 C 1178.35 469.94, 1179.37 468.87, 1181.07 467.51 C 1182.77 466.15, 1183.53 465.61, 1185.10 465.12 C 1186.68 464.63, 1187.45 464.73, 1188.95 465.07 C 1190.45 465.40, 1191.14 465.83, 1192.60 466.79 C 1194.05 467.76, 1194.71 468.49, 1196.21 469.91 C 1197.72 471.33, 1198.50 472.23, 1200.11 473.90 C 1201.72 475.57, 1202.52 476.55, 1204.29 478.26 C 1206.05 479.97, 1206.95 480.94, 1208.95 482.43 C 1210.95 483.93, 1212.04 484.65, 1214.28 485.74 C 1216.53 486.83, 1217.69 487.32, 1220.17 487.88 C 1222.66 488.44, 1224.02 488.58, 1226.69 488.54 C 1229.36 488.51, 1230.72 488.38, 1233.52 487.71 C 1236.32 487.05, 1237.83 486.54, 1240.68 485.21 C 1243.54 483.89, 1245.07 482.97, 1247.78 481.10 C 1250.49 479.24, 1251.84 478.12, 1254.24 475.90 C 1256.64 473.68, 1258.10 472.50, 1259.78 469.98 C 1261.47 467.46, 1262.21 465.90, 1262.68 463.30 C 1263.14 460.70, 1263.01 459.17, 1262.10 456.98 C 1261.19 454.80, 1260.30 453.64, 1258.15 452.36 C 1255.99 451.07, 1254.30 450.51, 1251.33 450.55 C 1248.36 450.60, 1246.32 451.15, 1243.29 452.58 C 1240.27 454.02, 1238.60 455.30, 1236.20 457.73 C 1233.81 460.17, 1232.51 461.73, 1231.33 464.77 C 1230.16 467.81, 1229.71 469.77, 1230.32 472.92 C 1230.94 476.07, 1231.81 478.00, 1234.41 480.51 C 1237.01 483.03, 1239.13 483.87, 1243.31 485.51 C 1247.49 487.14, 1250.01 487.70, 1255.32 488.67 C 1260.63 489.65, 1263.91 489.91, 1269.86 490.37 C 1275.81 490.84, 1279.27 490.86, 1285.07 491.00 C 1290.87 491.14, 1293.83 491.10, 1298.86 491.08 C 1303.90 491.05, 1306.50 490.99, 1310.24 490.88 C 1313.98 490.77, 1315.35 490.90, 1317.55 490.54 C 1319.76 490.18, 1320.24 489.58, 1321.28 489.06 C 1322.33 488.54, 1322.50 488.45, 1322.78 487.94 C 1323.05 487.42, 1323.03 486.95, 1322.66 486.48 C 1322.30 486.01, 1322.07 485.92, 1320.95 485.60 C 1319.84 485.29, 1319.29 484.90, 1317.08 484.91 C 1314.87 484.91, 1313.57 485.27, 1309.90 485.63 C 1306.23 486.00, 1303.69 486.46, 1298.74 486.72 C 1293.79 486.99, 1290.86 487.06, 1285.16 486.95 C 1279.46 486.84, 1276.01 486.77, 1270.24 486.20 C 1264.46 485.62, 1261.23 485.23, 1256.28 484.06 C 1251.34 482.90, 1248.98 482.03, 1245.52 480.38 C 1242.05 478.72, 1240.77 477.49, 1238.98 475.78 C 1237.19 474.06, 1236.78 473.39, 1236.55 471.81 C 1236.32 470.23, 1236.80 469.48, 1237.84 467.87 C 1238.88 466.26, 1239.89 465.23, 1241.75 463.77 C 1243.60 462.31, 1245.00 461.58, 1247.11 460.56 C 1249.22 459.55, 1250.57 459.20, 1252.30 458.68 C 1254.03 458.16, 1254.84 457.96, 1255.77 457.98 C 1256.69 458.00, 1256.85 458.08, 1256.94 458.77 C 1257.03 459.47, 1256.91 460.09, 1256.23 461.43 C 1255.55 462.77, 1254.98 463.68, 1253.55 465.47 C 1252.12 467.25, 1251.08 468.49, 1249.09 470.37 C 1247.09 472.24, 1245.90 473.30, 1243.57 474.82 C 1241.23 476.34, 1239.80 476.92, 1237.40 477.98 C 1235.01 479.03, 1233.78 479.51, 1231.59 480.11 C 1229.40 480.71, 1228.43 480.86, 1226.46 480.97 C 1224.48 481.08, 1223.51 481.01, 1221.73 480.65 C 1219.94 480.30, 1219.16 480.02, 1217.54 479.19 C 1215.93 478.35, 1215.18 477.79, 1213.65 476.49 C 1212.11 475.19, 1211.43 474.34, 1209.87 472.70 C 1208.32 471.07, 1207.57 470.05, 1205.87 468.31 C 1204.17 466.57, 1203.31 465.58, 1201.38 464.00 C 1199.45 462.42, 1198.47 461.53, 1196.22 460.40 C 1193.97 459.27, 1192.68 458.73, 1190.13 458.35 C 1187.58 457.97, 1186.13 457.95, 1183.47 458.51 C 1180.80 459.07, 1179.38 459.66, 1176.82 461.15 C 1174.26 462.63, 1172.97 463.87, 1170.65 465.94 C 1168.33 468.01, 1167.11 469.33, 1165.22 471.50 C 1163.33 473.66, 1162.43 474.92, 1161.18 476.75 C 1159.93 478.58, 1159.52 479.49, 1158.98 480.64 C 1158.44 481.79, 1158.61 482.22, 1158.50 482.49 C 1158.39 482.77, 1158.55 482.66, 1158.45 482.01 C 1158.35 481.36, 1158.25 480.74, 1157.98 479.25 C 1157.72 477.75, 1157.62 476.61, 1157.12 474.52 C 1156.63 472.43, 1156.29 470.84, 1155.50 468.81 C 1154.71 466.78, 1154.13 465.80, 1153.17 464.38 C 1152.22 462.96, 1151.84 462.14, 1150.71 461.71 C 1149.58 461.29, 1148.42 461.42, 1147.51 462.27" style="stroke: white; fill: white;"/></svg>
