<svg xmlns="http://www.w3.org/2000/svg" id="canvas" viewBox="269.120 389.674 996.301 126.304"><path d="M 314.23,401.88 C 313.02 402.56, 312.24 403.54, 311.15 406.09 C 310.06 408.63, 309.97 410.46, 308.78 414.60 C 307.59 418.74, 306.94 421.57, 305.20 426.79 C 303.46 432.00, 302.31 434.98, 300.08 440.68 C 297.86 446.38, 296.51 449.50, 294.09 455.30 C 291.67 461.10, 290.34 464.19, 287.97 469.70 C 285.60 475.21, 284.35 477.95, 282.22 482.85 C 280.09 487.75, 279.09 490.20, 277.33 494.21 C 275.57 498.22, 274.46 499.94, 273.43 502.89 C 272.39 505.85, 272.30 507.10, 272.16 508.99 C 272.02 510.87, 272.26 511.56, 272.73 512.31 C 273.21 513.06, 273.79 513.14, 274.53 512.74 C 275.28 512.33, 275.57 511.86, 276.47 510.29 C 277.37 508.72, 278.01 507.77, 279.05 504.89 C 280.09 502.01, 280.30 499.99, 281.67 495.88 C 283.04 491.78, 283.96 489.31, 285.90 484.37 C 287.84 479.42, 289.05 476.67, 291.36 471.14 C 293.67 465.61, 294.98 462.52, 297.46 456.72 C 299.94 450.93, 301.32 447.84, 303.74 442.18 C 306.17 436.51, 307.50 433.56, 309.60 428.42 C 311.70 423.27, 312.66 420.52, 314.26 416.46 C 315.85 412.40, 316.99 410.87, 317.57 408.12 C 318.16 405.36, 317.84 403.94, 317.17 402.69 C 316.50 401.45, 315.43 401.20, 314.23 401.88" style="stroke: white; fill: white;"/><path d="M 289.37,411.03 C 290.29 411.63, 290.90 411.53, 292.64 411.42 C 294.38 411.30, 295.45 411.31, 298.06 410.45 C 300.67 409.59, 302.14 408.37, 305.70 407.11 C 309.26 405.85, 311.55 405.24, 315.88 404.14 C 320.20 403.04, 322.69 402.47, 327.34 401.60 C 331.98 400.73, 334.53 400.33, 339.11 399.78 C 343.70 399.23, 346.09 399.06, 350.24 398.85 C 354.40 398.64, 356.45 398.58, 359.90 398.74 C 363.35 398.91, 364.86 399.39, 367.50 399.67 C 370.14 399.94, 371.36 400.11, 373.11 400.10 C 374.86 400.10, 375.31 399.84, 376.24 399.64 C 377.18 399.44, 377.35 399.50, 377.79 399.10 C 378.23 398.71, 378.54 398.30, 378.45 397.66 C 378.36 397.03, 378.20 396.66, 377.34 395.92 C 376.49 395.19, 376.03 394.64, 374.18 394.01 C 372.33 393.37, 370.95 392.94, 368.09 392.74 C 365.23 392.55, 363.51 392.81, 359.87 393.02 C 356.22 393.23, 354.15 393.39, 349.88 393.78 C 345.61 394.17, 343.20 394.40, 338.52 394.99 C 333.85 395.58, 331.25 395.98, 326.49 396.73 C 321.74 397.49, 319.24 397.99, 314.74 398.76 C 310.24 399.53, 307.88 399.88, 303.99 400.57 C 300.10 401.26, 298.07 401.25, 295.29 402.20 C 292.50 403.16, 291.50 404.10, 290.05 405.35 C 288.60 406.59, 288.18 407.28, 288.04 408.41 C 287.91 409.55, 288.45 410.43, 289.37 411.03" style="stroke: white; fill: white;"/><path d="M 284.75,456.88 C 285.22 457.75, 285.59 458.14, 287.09 458.61 C 288.58 459.08, 289.66 459.59, 292.24 459.23 C 294.82 458.87, 296.45 457.87, 299.99 456.80 C 303.52 455.72, 305.75 454.91, 309.91 453.84 C 314.08 452.77, 316.76 452.29, 320.81 451.43 C 324.86 450.57, 327.09 450.40, 330.16 449.54 C 333.23 448.67, 335.05 448.11, 336.17 447.09 C 337.29 446.07, 337.16 445.06, 335.76 444.42 C 334.36 443.78, 332.39 443.65, 329.16 443.89 C 325.94 444.14, 323.75 444.85, 319.63 445.64 C 315.52 446.43, 312.84 447.07, 308.59 447.85 C 304.34 448.63, 302.00 449.04, 298.39 449.54 C 294.78 450.05, 292.94 449.78, 290.54 450.37 C 288.14 450.95, 287.54 451.71, 286.38 452.49 C 285.22 453.26, 285.06 453.37, 284.74 454.24 C 284.41 455.12, 284.29 456.00, 284.75 456.88" style="stroke: white; fill: white;"/><path d="M 388.16,422.26 C 387.03 422.45, 386.36 422.94, 385.12 424.50 C 383.87 426.06, 383.33 427.07, 381.93 430.06 C 380.53 433.06, 379.92 435.28, 378.12 439.49 C 376.32 443.69, 375.23 446.23, 372.93 451.08 C 370.64 455.92, 369.19 458.70, 366.64 463.71 C 364.09 468.72, 362.59 471.38, 360.20 476.12 C 357.81 480.85, 356.62 483.27, 354.69 487.40 C 352.77 491.52, 351.68 493.35, 350.59 496.75 C 349.50 500.14, 348.99 501.71, 349.26 504.37 C 349.53 507.02, 350.22 508.49, 351.93 510.02 C 353.64 511.55, 355.44 511.91, 357.81 512.02 C 360.19 512.13, 361.98 511.77, 363.80 510.59 C 365.62 509.41, 366.69 507.66, 366.90 506.10 C 367.12 504.54, 366.21 503.39, 364.87 502.80 C 363.52 502.20, 361.82 502.62, 360.17 503.11 C 358.53 503.61, 357.74 504.56, 356.64 505.28 C 355.54 505.99, 355.04 506.89, 354.67 506.71 C 354.31 506.52, 354.54 506.03, 354.82 504.37 C 355.09 502.70, 355.19 501.40, 356.02 498.38 C 356.86 495.35, 357.41 493.32, 359.01 489.25 C 360.60 485.18, 361.74 482.72, 364.02 478.00 C 366.30 473.29, 367.79 470.62, 370.41 465.66 C 373.03 460.70, 374.54 457.92, 377.11 453.20 C 379.68 448.48, 380.95 446.03, 383.26 442.07 C 385.57 438.10, 387.10 436.33, 388.64 433.37 C 390.17 430.41, 390.52 429.24, 390.95 427.27 C 391.38 425.30, 391.35 424.53, 390.79 423.53 C 390.24 422.53, 389.30 422.07, 388.16 422.26" style="stroke: white; fill: white;"/><path d="M 441.64,464.85 C 441.42 463.86, 440.94 463.04, 439.43 462.49 C 437.91 461.94, 436.50 461.45, 434.07 462.11 C 431.64 462.77, 430.05 463.66, 427.28 465.78 C 424.50 467.90, 423.12 469.75, 420.20 472.70 C 417.28 475.65, 415.44 477.39, 412.67 480.53 C 409.91 483.67, 408.32 485.30, 406.38 488.39 C 404.44 491.48, 403.47 493.10, 402.97 495.97 C 402.48 498.84, 402.77 500.38, 403.90 502.74 C 405.02 505.09, 406.06 506.39, 408.60 507.74 C 411.15 509.08, 413.09 509.50, 416.63 509.45 C 420.16 509.40, 422.24 508.67, 426.27 507.49 C 430.30 506.31, 432.59 505.45, 436.78 503.57 C 440.97 501.69, 443.33 500.52, 447.23 498.09 C 451.12 495.67, 453.06 494.21, 456.25 491.45 C 459.44 488.69, 461.01 487.22, 463.18 484.28 C 465.35 481.34, 466.35 479.72, 467.12 476.76 C 467.89 473.79, 467.73 472.10, 467.01 469.46 C 466.29 466.81, 465.45 465.45, 463.51 463.53 C 461.58 461.61, 460.06 460.76, 457.34 459.84 C 454.63 458.91, 452.81 458.83, 449.94 458.90 C 447.06 458.98, 445.40 459.37, 442.98 460.23 C 440.56 461.08, 439.31 461.90, 437.83 463.17 C 436.35 464.43, 435.76 465.43, 435.57 466.56 C 435.38 467.68, 435.90 468.34, 436.86 468.80 C 437.82 469.27, 438.71 469.00, 440.36 468.88 C 442.01 468.76, 443.10 468.53, 445.10 468.20 C 447.10 467.88, 448.30 467.43, 450.36 467.26 C 452.41 467.09, 453.59 467.10, 455.37 467.35 C 457.15 467.60, 458.08 467.80, 459.26 468.53 C 460.44 469.25, 460.94 469.69, 461.27 470.99 C 461.61 472.29, 461.53 473.07, 460.92 475.03 C 460.32 476.99, 459.91 478.31, 458.25 480.79 C 456.59 483.27, 455.39 484.85, 452.63 487.41 C 449.87 489.98, 448.06 491.41, 444.47 493.63 C 440.87 495.85, 438.58 496.94, 434.64 498.49 C 430.70 500.04, 428.40 500.67, 424.77 501.38 C 421.14 502.09, 419.25 501.98, 416.50 502.04 C 413.75 502.10, 412.61 501.98, 411.01 501.67 C 409.41 501.37, 408.91 501.36, 408.49 500.52 C 408.08 499.68, 408.27 499.20, 408.93 497.47 C 409.60 495.74, 410.15 494.43, 411.82 491.87 C 413.49 489.30, 414.70 487.49, 417.28 484.65 C 419.87 481.81, 421.78 480.07, 424.73 477.66 C 427.68 475.26, 429.54 474.15, 432.02 472.62 C 434.51 471.09, 435.67 470.86, 437.13 470.01 C 438.59 469.16, 438.64 468.90, 439.31 468.39 C 439.99 467.88, 440.07 468.18, 440.53 467.47 C 440.99 466.77, 441.86 465.85, 441.64 464.85" style="stroke: white; fill: white;"/><path d="M 533.52,465.25 C 533.02 464.20, 532.33 463.62, 530.58 463.03 C 528.84 462.43, 527.50 461.94, 524.77 462.27 C 522.04 462.60, 520.22 463.22, 516.93 464.69 C 513.64 466.16, 511.87 467.42, 508.32 469.63 C 504.78 471.83, 502.71 473.12, 499.20 475.70 C 495.70 478.28, 493.82 479.79, 490.78 482.52 C 487.74 485.25, 486.08 486.57, 484.03 489.37 C 481.98 492.17, 481.07 493.78, 480.53 496.54 C 479.99 499.30, 480.20 500.85, 481.33 503.18 C 482.46 505.51, 483.55 506.86, 486.18 508.20 C 488.82 509.53, 490.71 509.75, 494.50 509.86 C 498.29 509.98, 500.53 509.52, 505.12 508.77 C 509.71 508.02, 512.32 507.43, 517.45 506.11 C 522.58 504.79, 525.83 503.77, 530.77 502.18 C 535.71 500.59, 538.46 499.77, 542.14 498.15 C 545.82 496.54, 547.98 495.43, 549.18 494.12 C 550.37 492.81, 549.85 491.67, 548.11 491.60 C 546.38 491.53, 544.25 492.57, 540.49 493.77 C 536.73 494.97, 534.15 496.09, 529.32 497.61 C 524.48 499.13, 521.28 500.26, 516.31 501.39 C 511.33 502.52, 508.73 502.93, 504.45 503.26 C 500.16 503.59, 498.03 503.32, 494.88 503.04 C 491.73 502.77, 490.52 502.35, 488.71 501.91 C 486.90 501.46, 486.32 501.56, 485.82 500.81 C 485.33 500.06, 485.57 499.69, 486.25 498.17 C 486.93 496.64, 487.53 495.48, 489.22 493.20 C 490.92 490.92, 492.06 489.34, 494.73 486.77 C 497.40 484.20, 499.22 482.70, 502.55 480.36 C 505.89 478.03, 507.99 476.80, 511.40 475.09 C 514.80 473.39, 516.65 472.69, 519.59 471.84 C 522.53 470.98, 523.94 471.25, 526.10 470.82 C 528.26 470.40, 529.00 470.21, 530.40 469.70 C 531.80 469.19, 532.47 469.16, 533.09 468.27 C 533.72 467.38, 534.02 466.30, 533.52 465.25" style="stroke: white; fill: white;"/><path d="M 596.20,419.33 C 595.10 419.47, 594.61 419.83, 593.31 421.26 C 592.00 422.68, 591.21 423.57, 589.68 426.45 C 588.15 429.32, 587.53 431.60, 585.65 435.64 C 583.76 439.69, 582.57 442.16, 580.25 446.68 C 577.93 451.21, 576.51 453.73, 574.02 458.26 C 571.53 462.79, 570.10 465.18, 567.79 469.34 C 565.48 473.51, 564.35 475.57, 562.45 479.10 C 560.56 482.63, 559.36 484.13, 558.29 487.00 C 557.23 489.87, 557.01 491.29, 557.15 493.46 C 557.29 495.63, 557.71 496.58, 558.99 497.85 C 560.27 499.13, 561.39 499.79, 563.54 499.83 C 565.68 499.86, 567.23 499.62, 569.70 498.02 C 572.18 496.42, 573.02 494.58, 575.92 491.83 C 578.82 489.07, 580.59 487.39, 584.20 484.23 C 587.81 481.07, 590.06 479.13, 593.96 476.02 C 597.87 472.92, 600.02 471.32, 603.71 468.72 C 607.39 466.12, 609.38 464.94, 612.40 463.02 C 615.41 461.11, 616.93 460.59, 618.77 459.15 C 620.61 457.72, 620.88 456.90, 621.61 455.83 C 622.33 454.76, 622.41 454.45, 622.38 453.81 C 622.35 453.16, 622.06 452.83, 621.47 452.61 C 620.88 452.38, 620.67 452.43, 619.45 452.71 C 618.22 452.98, 617.42 452.85, 615.37 453.98 C 613.31 455.10, 612.09 456.17, 609.17 458.32 C 606.26 460.47, 604.42 461.95, 600.78 464.72 C 597.13 467.50, 594.96 469.12, 590.96 472.19 C 586.97 475.25, 584.66 477.17, 580.82 480.05 C 576.97 482.94, 574.95 484.43, 571.72 486.61 C 568.49 488.79, 566.66 489.37, 564.67 490.95 C 562.68 492.54, 562.40 493.58, 561.78 494.53 C 561.15 495.48, 561.42 495.79, 561.57 495.71 C 561.72 495.63, 561.96 495.42, 562.53 494.13 C 563.10 492.84, 563.49 491.80, 564.42 489.25 C 565.35 486.69, 565.68 484.90, 567.18 481.36 C 568.67 477.82, 569.73 475.72, 571.89 471.55 C 574.06 467.37, 575.46 464.97, 578.00 460.47 C 580.53 455.98, 581.99 453.46, 584.58 449.06 C 587.16 444.67, 588.53 442.29, 590.91 438.51 C 593.28 434.73, 594.82 433.01, 596.44 430.16 C 598.06 427.32, 598.53 426.19, 599.00 424.27 C 599.47 422.35, 599.34 421.54, 598.78 420.55 C 598.22 419.56, 597.29 419.18, 596.20 419.33" style="stroke: white; fill: white;"/><path d="M 601.25,475.77 C 600.28 476.28, 599.74 476.84, 599.41 478.22 C 599.07 479.60, 598.95 480.81, 599.57 482.65 C 600.19 484.50, 600.98 485.70, 602.51 487.44 C 604.04 489.18, 605.10 489.96, 607.23 491.36 C 609.36 492.76, 610.52 493.43, 613.15 494.44 C 615.79 495.45, 617.30 495.98, 620.40 496.41 C 623.51 496.84, 625.26 496.70, 628.67 496.58 C 632.08 496.46, 633.87 496.32, 637.47 495.79 C 641.07 495.26, 643.03 494.87, 646.68 493.93 C 650.33 492.99, 652.24 492.40, 655.73 491.10 C 659.21 489.80, 660.96 489.06, 664.10 487.42 C 667.23 485.78, 668.87 484.86, 671.42 482.89 C 673.98 480.91, 675.14 479.80, 676.87 477.56 C 678.59 475.32, 679.26 474.02, 680.06 471.68 C 680.86 469.33, 681.02 468.05, 680.85 465.85 C 680.69 463.65, 680.37 462.51, 679.24 460.68 C 678.11 458.86, 677.22 457.80, 675.20 456.72 C 673.18 455.64, 671.73 455.26, 669.16 455.27 C 666.59 455.27, 665.05 455.59, 662.35 456.74 C 659.66 457.89, 658.21 458.88, 655.67 461.02 C 653.13 463.16, 651.84 464.65, 649.66 467.43 C 647.48 470.22, 646.31 471.82, 644.79 474.94 C 643.27 478.06, 642.48 479.79, 642.04 483.01 C 641.61 486.24, 641.68 488.03, 642.62 491.05 C 643.56 494.08, 644.39 495.78, 646.75 498.12 C 649.11 500.45, 650.93 501.31, 654.45 502.73 C 657.96 504.15, 660.02 504.55, 664.31 505.19 C 668.60 505.84, 671.48 505.85, 675.91 505.97 C 680.35 506.10, 682.91 506.20, 686.50 505.82 C 690.08 505.43, 692.41 504.99, 693.85 504.05 C 695.29 503.11, 695.18 501.90, 693.68 501.13 C 692.18 500.37, 689.86 500.42, 686.35 500.22 C 682.84 500.03, 680.33 500.33, 676.12 500.15 C 671.90 499.97, 669.09 500.01, 665.27 499.33 C 661.45 498.65, 659.73 498.01, 657.01 496.75 C 654.29 495.49, 653.30 494.56, 651.69 493.03 C 650.08 491.51, 649.47 490.90, 648.96 489.14 C 648.46 487.37, 648.69 486.38, 649.15 484.19 C 649.62 482.01, 650.03 480.61, 651.29 478.21 C 652.54 475.81, 653.52 474.35, 655.43 472.18 C 657.33 470.01, 658.73 468.95, 660.80 467.36 C 662.87 465.77, 664.01 465.12, 665.78 464.23 C 667.55 463.33, 668.36 463.14, 669.66 462.89 C 670.97 462.64, 671.47 462.72, 672.32 462.96 C 673.17 463.20, 673.48 463.46, 673.92 464.09 C 674.36 464.72, 674.55 465.09, 674.53 466.13 C 674.51 467.17, 674.45 467.89, 673.82 469.30 C 673.18 470.71, 672.73 471.56, 671.37 473.18 C 670.02 474.80, 669.12 475.68, 667.05 477.40 C 664.97 479.12, 663.69 480.20, 660.98 481.77 C 658.28 483.35, 656.68 484.07, 653.52 485.28 C 650.36 486.49, 648.55 487.04, 645.18 487.84 C 641.81 488.63, 639.96 488.95, 636.67 489.26 C 633.38 489.58, 631.70 489.57, 628.71 489.41 C 625.72 489.25, 624.25 488.97, 621.71 488.47 C 619.18 487.96, 618.01 487.65, 616.03 486.89 C 614.04 486.14, 613.14 485.70, 611.79 484.71 C 610.44 483.72, 610.07 483.08, 609.28 481.95 C 608.49 480.83, 608.44 480.08, 607.83 479.09 C 607.23 478.09, 606.97 477.67, 606.26 476.98 C 605.55 476.30, 605.29 475.91, 604.29 475.67 C 603.29 475.42, 602.23 475.26, 601.25 475.77" style="stroke: white; fill: white;"/><path d="M 910.01,425.56 C 910.07 424.33, 909.66 423.34, 908.36 421.95 C 907.06 420.57, 905.99 419.62, 903.51 418.64 C 901.03 417.66, 899.22 417.13, 895.96 417.04 C 892.70 416.96, 890.98 417.43, 887.21 418.21 C 883.44 418.98, 881.35 419.42, 877.11 420.92 C 872.87 422.41, 870.56 423.35, 866.00 425.69 C 861.43 428.02, 858.93 429.50, 854.30 432.60 C 849.67 435.69, 847.18 437.53, 842.83 441.16 C 838.47 444.79, 836.17 446.80, 832.53 450.75 C 828.88 454.70, 827.18 456.89, 824.59 460.90 C 822.00 464.92, 820.86 466.95, 819.58 470.84 C 818.30 474.72, 817.89 476.74, 818.20 480.33 C 818.51 483.92, 819.20 485.90, 821.13 488.80 C 823.06 491.71, 824.60 493.00, 827.83 494.84 C 831.07 496.68, 833.19 497.30, 837.31 498.02 C 841.43 498.74, 843.72 498.77, 848.42 498.45 C 853.12 498.13, 855.71 497.65, 860.80 496.43 C 865.89 495.20, 868.74 494.39, 873.86 492.33 C 878.99 490.26, 881.56 488.85, 886.44 486.10 C 891.31 483.35, 893.86 481.80, 898.23 478.57 C 902.60 475.34, 904.74 473.50, 908.28 469.95 C 911.83 466.40, 913.37 464.46, 915.97 460.84 C 918.57 457.23, 919.71 455.42, 921.28 451.88 C 922.86 448.34, 923.41 446.46, 923.82 443.13 C 924.24 439.79, 924.04 438.10, 923.34 435.21 C 922.64 432.33, 921.91 430.96, 920.32 428.69 C 918.73 426.42, 917.60 425.36, 915.37 423.86 C 913.13 422.36, 911.68 421.80, 909.15 421.19 C 906.62 420.58, 905.08 420.62, 902.73 420.81 C 900.37 421.00, 899.11 421.45, 897.36 422.13 C 895.62 422.80, 894.93 423.28, 893.99 424.19 C 893.05 425.11, 892.86 425.89, 892.67 426.71 C 892.48 427.53, 892.73 427.89, 893.04 428.31 C 893.35 428.74, 893.82 428.65, 894.24 428.84 C 894.66 429.03, 894.62 429.10, 895.12 429.25 C 895.63 429.41, 895.91 429.61, 896.76 429.62 C 897.61 429.62, 898.04 429.46, 899.37 429.28 C 900.69 429.10, 901.72 428.84, 903.38 428.70 C 905.03 428.56, 906.00 428.32, 907.63 428.56 C 909.26 428.81, 910.09 429.10, 911.54 429.92 C 912.98 430.75, 913.77 431.31, 914.85 432.69 C 915.93 434.08, 916.41 434.87, 916.94 436.84 C 917.47 438.80, 917.65 439.93, 917.51 442.54 C 917.36 445.14, 917.32 446.74, 916.23 449.86 C 915.13 452.98, 914.24 454.73, 912.02 458.14 C 909.81 461.55, 908.42 463.49, 905.17 466.91 C 901.91 470.34, 899.91 472.14, 895.77 475.27 C 891.62 478.39, 889.13 479.92, 884.44 482.54 C 879.75 485.16, 877.24 486.50, 872.31 488.38 C 867.39 490.26, 864.63 490.96, 859.80 491.96 C 854.98 492.95, 852.46 493.26, 848.19 493.34 C 843.91 493.43, 841.88 493.16, 838.43 492.38 C 834.98 491.59, 833.38 490.85, 830.94 489.43 C 828.51 488.01, 827.67 487.22, 826.27 485.28 C 824.87 483.33, 824.30 482.30, 823.94 479.71 C 823.57 477.11, 823.55 475.60, 824.46 472.32 C 825.36 469.04, 826.21 467.04, 828.44 463.30 C 830.68 459.55, 832.22 457.37, 835.63 453.58 C 839.03 449.78, 841.25 447.80, 845.45 444.32 C 849.66 440.85, 852.12 439.06, 856.64 436.18 C 861.16 433.30, 863.64 431.95, 868.06 429.93 C 872.47 427.92, 874.71 427.15, 878.71 426.10 C 882.72 425.04, 884.77 424.83, 888.07 424.66 C 891.38 424.48, 892.70 424.80, 895.22 425.23 C 897.74 425.67, 898.75 426.30, 900.68 426.83 C 902.61 427.37, 903.38 427.68, 904.86 427.93 C 906.34 428.18, 907.05 428.55, 908.08 428.07 C 909.11 427.60, 909.96 426.78, 910.01 425.56" style="stroke: white; fill: white;"/><path d="M 951.40,457.08 C 950.33 457.26, 949.96 457.74, 948.82 458.91 C 947.67 460.08, 946.96 460.77, 945.69 462.93 C 944.41 465.09, 943.86 466.88, 942.44 469.71 C 941.01 472.53, 940.03 474.36, 938.57 477.07 C 937.10 479.78, 935.95 481.04, 935.11 483.25 C 934.27 485.47, 934.02 486.62, 934.37 488.15 C 934.72 489.67, 935.44 490.51, 936.86 490.86 C 938.27 491.21, 939.58 491.18, 941.44 489.88 C 943.30 488.59, 943.92 487.07, 946.17 484.40 C 948.43 481.73, 949.66 479.70, 952.71 476.53 C 955.77 473.35, 957.82 471.47, 961.45 468.53 C 965.08 465.59, 967.21 464.00, 970.88 461.84 C 974.54 459.67, 976.64 458.85, 979.76 457.70 C 982.87 456.56, 984.40 456.46, 986.47 456.13 C 988.53 455.79, 989.12 455.62, 990.07 456.03 C 991.01 456.43, 991.10 456.89, 991.20 458.15 C 991.30 459.41, 991.00 460.26, 990.56 462.33 C 990.12 464.40, 989.79 465.80, 989.01 468.50 C 988.23 471.20, 987.71 472.97, 986.66 475.83 C 985.61 478.68, 984.69 480.18, 983.75 482.77 C 982.80 485.36, 982.42 486.66, 981.93 488.77 C 981.43 490.87, 981.19 491.82, 981.27 493.29 C 981.34 494.76, 981.80 495.38, 982.29 496.10 C 982.78 496.83, 983.22 496.87, 983.71 496.93 C 984.20 496.98, 984.37 496.59, 984.73 496.40 C 985.09 496.21, 985.07 496.35, 985.51 495.98 C 985.96 495.61, 986.35 495.52, 986.96 494.54 C 987.57 493.55, 987.73 492.82, 988.56 491.05 C 989.40 489.29, 990.06 488.21, 991.14 485.72 C 992.22 483.23, 992.82 481.57, 993.96 478.58 C 995.11 475.60, 995.98 473.90, 996.89 470.79 C 997.80 467.69, 998.51 465.99, 998.52 463.04 C 998.53 460.08, 998.16 458.36, 996.94 456.03 C 995.71 453.71, 994.63 452.63, 992.40 451.43 C 990.18 450.22, 988.77 449.82, 985.82 450.01 C 982.87 450.20, 981.17 450.90, 977.65 452.38 C 974.13 453.87, 972.08 455.03, 968.21 457.44 C 964.33 459.86, 962.17 461.51, 958.27 464.45 C 954.36 467.39, 952.25 469.25, 948.69 472.16 C 945.13 475.07, 943.11 476.51, 940.47 479.02 C 937.84 481.52, 936.53 482.71, 935.51 484.70 C 934.50 486.70, 934.89 487.95, 935.40 489.01 C 935.91 490.06, 936.79 490.34, 938.08 489.98 C 939.36 489.62, 940.30 488.98, 941.81 487.21 C 943.32 485.44, 944.00 483.81, 945.64 481.14 C 947.28 478.47, 948.31 476.67, 949.99 473.85 C 951.66 471.02, 953.01 469.50, 954.02 467.01 C 955.02 464.51, 954.97 463.16, 955.00 461.36 C 955.03 459.57, 954.90 458.89, 954.18 458.03 C 953.46 457.17, 952.47 456.90, 951.40 457.08" style="stroke: white; fill: white;"/><path d="M 1045.82,411.99 C 1044.76 412.19, 1044.32 412.49, 1043.10 413.99 C 1041.89 415.49, 1041.20 416.50, 1039.76 419.51 C 1038.32 422.53, 1037.78 424.88, 1035.92 429.05 C 1034.06 433.23, 1032.80 435.76, 1030.47 440.39 C 1028.15 445.02, 1026.63 447.58, 1024.29 452.21 C 1021.95 456.84, 1020.71 459.28, 1018.76 463.53 C 1016.81 467.78, 1015.84 469.79, 1014.53 473.44 C 1013.21 477.09, 1012.46 478.77, 1012.16 481.79 C 1011.86 484.81, 1012.22 486.24, 1013.04 488.53 C 1013.86 490.83, 1014.55 491.80, 1016.26 493.26 C 1017.97 494.71, 1019.17 495.35, 1021.58 495.82 C 1024.00 496.28, 1025.78 496.22, 1028.33 495.58 C 1030.89 494.95, 1032.51 494.15, 1034.35 492.63 C 1036.19 491.12, 1037.23 489.52, 1037.53 488.01 C 1037.82 486.51, 1037.19 485.65, 1035.84 485.10 C 1034.49 484.55, 1032.83 484.89, 1030.79 485.25 C 1028.75 485.60, 1027.47 486.15, 1025.64 486.87 C 1023.80 487.60, 1022.84 488.41, 1021.61 488.86 C 1020.38 489.31, 1020.12 489.48, 1019.49 489.12 C 1018.86 488.75, 1018.65 488.37, 1018.47 487.03 C 1018.28 485.69, 1018.30 484.81, 1018.54 482.42 C 1018.78 480.03, 1018.75 478.46, 1019.65 475.06 C 1020.56 471.66, 1021.35 469.59, 1023.09 465.43 C 1024.82 461.27, 1026.00 458.82, 1028.34 454.27 C 1030.68 449.72, 1032.21 447.19, 1034.77 442.69 C 1037.33 438.19, 1038.78 435.72, 1041.14 431.75 C 1043.49 427.79, 1044.98 425.90, 1046.54 422.88 C 1048.10 419.86, 1048.57 418.63, 1048.94 416.65 C 1049.32 414.67, 1049.03 413.92, 1048.41 412.99 C 1047.78 412.06, 1046.88 411.79, 1045.82 411.99" style="stroke: white; fill: white;"/><path d="M 1077.80,454.34 C 1076.66 454.50, 1076.19 454.97, 1074.81 456.29 C 1073.43 457.62, 1072.43 458.54, 1070.90 460.95 C 1069.38 463.37, 1068.75 465.30, 1067.17 468.35 C 1065.58 471.40, 1064.63 473.26, 1062.98 476.20 C 1061.34 479.14, 1060.11 480.52, 1058.96 483.04 C 1057.82 485.57, 1057.56 486.96, 1057.26 488.83 C 1056.96 490.71, 1057.23 491.37, 1057.47 492.42 C 1057.71 493.47, 1057.97 493.73, 1058.46 494.08 C 1058.96 494.43, 1059.42 494.33, 1059.95 494.17 C 1060.47 494.00, 1060.45 493.89, 1061.09 493.27 C 1061.72 492.66, 1062.17 492.45, 1063.12 491.09 C 1064.06 489.73, 1064.56 488.73, 1065.81 486.47 C 1067.06 484.22, 1067.74 482.65, 1069.37 479.82 C 1070.99 476.99, 1072.08 475.17, 1073.95 472.32 C 1075.82 469.46, 1077.31 468.10, 1078.70 465.53 C 1080.10 462.97, 1080.56 461.50, 1080.92 459.49 C 1081.28 457.49, 1081.13 456.55, 1080.50 455.52 C 1079.88 454.49, 1078.94 454.19, 1077.80 454.34" style="stroke: white; fill: white;"/><path d="M 1097.70,417.66 C 1098.28 418.45, 1097.95 419.64, 1097.70 419.92 C 1097.45 420.21, 1096.68 420.21, 1096.46 419.09 C 1096.23 417.97, 1096.90 415.43, 1096.60 414.30 C 1096.29 413.18, 1095.29 413.12, 1094.92 413.46 C 1094.56 413.79, 1094.22 415.14, 1094.78 415.98 C 1095.33 416.82, 1097.11 416.87, 1097.70 417.66" style="stroke: white; fill: white;"/><path d="M 1115.17,457.13 C 1114.02 457.48, 1113.65 458.30, 1112.45 459.76 C 1111.26 461.21, 1110.47 462.07, 1109.21 464.40 C 1107.94 466.72, 1107.53 468.58, 1106.12 471.38 C 1104.72 474.17, 1103.82 475.72, 1102.20 478.36 C 1100.58 481.01, 1099.28 482.29, 1098.01 484.59 C 1096.75 486.88, 1096.12 488.11, 1095.89 489.85 C 1095.65 491.59, 1095.92 492.49, 1096.84 493.31 C 1097.76 494.12, 1098.80 494.52, 1100.49 493.94 C 1102.18 493.37, 1103.29 492.62, 1105.30 490.42 C 1107.30 488.23, 1107.98 486.07, 1110.53 482.97 C 1113.08 479.87, 1114.73 478.01, 1118.06 474.94 C 1121.39 471.86, 1123.42 470.22, 1127.18 467.59 C 1130.94 464.96, 1133.16 463.64, 1136.85 461.80 C 1140.54 459.96, 1142.49 459.27, 1145.62 458.39 C 1148.75 457.51, 1150.25 457.54, 1152.48 457.39 C 1154.71 457.25, 1155.58 457.18, 1156.76 457.66 C 1157.95 458.15, 1158.16 458.54, 1158.43 459.81 C 1158.70 461.07, 1158.45 461.91, 1158.10 463.98 C 1157.74 466.04, 1157.51 467.43, 1156.67 470.14 C 1155.83 472.86, 1155.21 474.60, 1153.90 477.55 C 1152.59 480.49, 1151.46 482.11, 1150.13 484.87 C 1148.80 487.64, 1147.98 489.04, 1147.25 491.37 C 1146.53 493.70, 1146.48 494.89, 1146.52 496.54 C 1146.55 498.20, 1146.83 498.95, 1147.42 499.64 C 1148.01 500.33, 1148.70 500.34, 1149.48 500.01 C 1150.25 499.68, 1150.39 499.15, 1151.28 497.99 C 1152.17 496.84, 1152.79 496.20, 1153.92 494.23 C 1155.04 492.27, 1155.58 490.89, 1156.91 488.16 C 1158.25 485.43, 1159.15 483.71, 1160.60 480.58 C 1162.04 477.45, 1163.10 475.73, 1164.14 472.51 C 1165.18 469.29, 1165.81 467.50, 1165.79 464.47 C 1165.77 461.45, 1165.33 459.76, 1164.03 457.39 C 1162.73 455.02, 1161.64 453.90, 1159.28 452.62 C 1156.92 451.33, 1155.31 450.90, 1152.23 450.97 C 1149.15 451.03, 1147.42 451.68, 1143.87 452.93 C 1140.32 454.19, 1138.39 455.14, 1134.48 457.25 C 1130.58 459.36, 1128.34 460.77, 1124.35 463.49 C 1120.37 466.21, 1118.28 467.89, 1114.56 470.85 C 1110.83 473.80, 1108.93 475.52, 1105.74 478.28 C 1102.56 481.03, 1100.58 482.26, 1098.62 484.63 C 1096.67 487.01, 1096.23 488.40, 1095.96 490.16 C 1095.70 491.92, 1096.32 492.86, 1097.31 493.45 C 1098.30 494.04, 1099.42 494.03, 1100.91 493.11 C 1102.40 492.20, 1103.22 491.03, 1104.78 488.89 C 1106.34 486.74, 1107.03 485.10, 1108.72 482.40 C 1110.40 479.69, 1111.49 478.15, 1113.22 475.35 C 1114.95 472.54, 1116.22 470.99, 1117.37 468.37 C 1118.51 465.75, 1118.76 464.33, 1118.93 462.26 C 1119.10 460.18, 1118.96 459.03, 1118.21 458.01 C 1117.45 456.98, 1116.32 456.78, 1115.17 457.13" style="stroke: white; fill: white;"/><path d="M 1186.53,483.43 C 1187.21 484.36, 1187.95 484.70, 1189.77 485.08 C 1191.58 485.46, 1192.88 485.80, 1195.59 485.32 C 1198.30 484.84, 1200.05 483.89, 1203.32 482.66 C 1206.59 481.43, 1208.45 480.62, 1211.93 479.16 C 1215.42 477.71, 1217.34 476.84, 1220.74 475.39 C 1224.14 473.93, 1226.07 473.41, 1228.92 471.89 C 1231.77 470.37, 1233.21 469.60, 1234.99 467.78 C 1236.77 465.95, 1237.49 464.83, 1237.83 462.77 C 1238.17 460.71, 1237.97 459.30, 1236.71 457.49 C 1235.44 455.69, 1234.26 454.47, 1231.52 453.75 C 1228.78 453.03, 1226.84 453.28, 1223.02 453.91 C 1219.19 454.54, 1216.89 455.34, 1212.38 456.90 C 1207.88 458.46, 1205.18 459.54, 1200.49 461.71 C 1195.79 463.88, 1193.08 465.22, 1188.90 467.75 C 1184.72 470.29, 1182.59 471.63, 1179.57 474.39 C 1176.56 477.15, 1175.04 478.56, 1173.84 481.56 C 1172.64 484.56, 1172.63 486.50, 1173.57 489.39 C 1174.50 492.28, 1175.65 493.94, 1178.52 496.01 C 1181.39 498.09, 1183.55 498.60, 1187.92 499.77 C 1192.29 500.94, 1194.96 501.27, 1200.37 501.87 C 1205.77 502.48, 1209.01 502.58, 1214.96 502.79 C 1220.92 503.01, 1224.28 502.96, 1230.14 502.95 C 1236.01 502.94, 1239.28 502.85, 1244.29 502.75 C 1249.29 502.65, 1251.71 502.80, 1255.16 502.44 C 1258.60 502.09, 1260.27 501.74, 1261.52 500.98 C 1262.77 500.22, 1262.71 499.26, 1261.40 498.63 C 1260.09 498.00, 1258.41 497.87, 1254.96 497.81 C 1251.51 497.75, 1249.11 498.11, 1244.14 498.33 C 1239.18 498.55, 1235.92 498.85, 1230.12 498.92 C 1224.32 498.98, 1220.98 499.00, 1215.16 498.66 C 1209.33 498.32, 1206.13 498.08, 1201.01 497.23 C 1195.89 496.38, 1193.32 495.72, 1189.55 494.41 C 1185.78 493.10, 1184.34 492.05, 1182.16 490.68 C 1179.97 489.31, 1179.22 488.92, 1178.62 487.56 C 1178.02 486.21, 1178.21 485.74, 1179.14 483.89 C 1180.07 482.04, 1180.79 480.70, 1183.26 478.31 C 1185.73 475.92, 1187.63 474.35, 1191.48 471.94 C 1195.33 469.53, 1198.01 468.17, 1202.51 466.25 C 1207.01 464.32, 1209.73 463.36, 1213.99 462.31 C 1218.26 461.26, 1220.58 461.19, 1223.85 460.99 C 1227.11 460.79, 1228.43 461.29, 1230.33 461.30 C 1232.23 461.32, 1232.69 461.07, 1233.34 461.06 C 1233.99 461.06, 1234.06 460.97, 1233.58 461.29 C 1233.09 461.61, 1232.52 461.81, 1230.92 462.68 C 1229.32 463.55, 1228.15 464.28, 1225.60 465.64 C 1223.04 467.00, 1221.34 468.02, 1218.13 469.48 C 1214.93 470.93, 1212.99 471.77, 1209.58 472.91 C 1206.16 474.06, 1204.25 474.48, 1201.06 475.20 C 1197.88 475.93, 1196.07 475.87, 1193.65 476.52 C 1191.22 477.18, 1190.40 477.68, 1188.95 478.47 C 1187.49 479.25, 1186.85 479.44, 1186.37 480.43 C 1185.89 481.43, 1185.86 482.50, 1186.53 483.43" style="stroke: white; fill: white;"/></svg>
